<svg width="120" height="17" viewBox="0 0 120 17" fill="none" xmlns="http://www.w3.org/2000/svg">
<g clip-path="url(#clip0_44_301)">
<path d="M11.5894 0.723129C11.7113 0.454462 12.0798 0.439186 12.2822 0.623338C12.6959 0.952648 12.9305 1.45237 13.1075 1.93981C13.4249 2.89703 13.4823 4.00547 12.988 4.91434C12.7451 5.42711 12.3787 5.87156 11.9518 6.24078C9.67662 8.23191 7.0089 9.7158 4.2762 10.9778C4.13742 11.0561 3.97963 11.0768 3.82245 11.0645C3.93357 10.8319 4.15205 10.6838 4.32594 10.5033C5.78199 9.02648 7.08477 7.40595 8.29712 5.7241C9.46664 4.1068 10.6261 2.47484 11.5894 0.723129Z" fill="#80BA27"/>
<path d="M26.4955 2.16625C27.8389 1.54525 29.3585 1.39326 30.8184 1.55523C31.8216 1.65886 32.8125 1.94741 33.6846 2.45872C34.2585 2.78964 34.7697 3.21636 35.2494 3.67079C34.5957 4.44455 33.9282 5.20764 33.2623 5.97058C32.348 5.14078 31.2261 4.44225 29.9609 4.38775C28.7332 4.28719 27.4719 4.79919 26.6795 5.7472C25.0748 7.60101 25.2779 10.7621 27.1906 12.3273C28.1946 13.1755 29.6153 13.3705 30.8637 13.0557C31.8308 12.8216 32.6393 12.2014 33.3621 11.5436C34.0181 12.2144 34.684 12.8761 35.3461 13.5416C34.73 14.244 33.992 14.8496 33.1651 15.288C32.0915 15.8529 30.8653 16.0832 29.6599 16.0709C28.118 16.1124 26.56 15.6503 25.3055 14.7476C23.8203 13.6944 22.7957 12.034 22.4762 10.2439C22.208 8.72787 22.3551 7.12201 22.9882 5.71112C23.6715 4.15286 24.9429 2.86095 26.4955 2.16625ZM103.764 1.61741C104.244 1.61971 104.723 1.61741 105.203 1.61902C105.204 6.3329 105.201 11.0476 105.205 15.7624C104.724 15.7646 104.244 15.7624 103.763 15.764C103.761 15.245 103.77 14.7261 103.759 14.208C103.385 14.6048 103.012 15.0131 102.537 15.2926C101.396 16.0302 99.9211 16.1792 98.642 15.7448C97.478 15.3686 96.474 14.5304 95.8932 13.4527C95.3314 12.4594 95.1559 11.285 95.2617 10.158C95.3774 8.6528 96.1829 7.20499 97.4282 6.34687C98.6083 5.51699 100.171 5.26138 101.547 5.70207C102.42 5.97073 103.178 6.53417 103.763 7.22886C103.766 5.35802 103.763 3.48733 103.764 1.61741ZM99.4306 6.99152C98.7455 7.13199 98.107 7.49822 97.6472 8.02627C96.799 9.00337 96.6157 10.3905 96.8273 11.6302C96.9944 12.5353 97.4818 13.4019 98.242 13.9346C98.9647 14.4605 99.9057 14.6746 100.785 14.5134C101.732 14.3469 102.591 13.7734 103.132 12.982C104.124 11.5697 104.032 9.49096 102.901 8.18217C102.068 7.20031 100.694 6.69752 99.4306 6.99152ZM116.405 1.70645C116.669 1.55369 116.987 1.57672 117.278 1.61817C117.269 1.75335 117.257 1.88914 117.248 2.02424C117.049 2.01657 116.758 1.89766 116.635 2.11943C116.647 2.35355 116.955 2.3643 117.113 2.47177C117.469 2.62069 117.494 3.1442 117.227 3.38831C116.961 3.66534 116.537 3.62166 116.193 3.56939C116.2 3.42362 116.209 3.27846 116.216 3.13269C116.401 3.17491 116.594 3.22396 116.787 3.18028C116.892 3.12962 116.945 2.98369 116.853 2.89242C116.662 2.765 116.413 2.73583 116.256 2.56004C116.036 2.30826 116.121 1.87379 116.405 1.70645ZM117.813 1.61741C117.991 1.61741 118.17 1.61817 118.351 1.62124C118.447 1.95132 118.557 2.27679 118.654 2.60687L118.731 2.64525C118.887 2.32131 118.956 1.956 119.084 1.61671C119.257 1.61748 119.431 1.61825 119.605 1.61979C119.716 2.27303 119.813 2.92781 119.922 3.58182C119.753 3.58343 119.586 3.58182 119.419 3.57491C119.376 3.25712 119.33 2.93932 119.274 2.62306L119.191 2.66989C119.089 2.9708 119.008 3.27861 118.913 3.58105C118.762 3.58182 118.612 3.58182 118.464 3.58259C118.369 3.24108 118.225 2.91177 118.166 2.56166C118.256 2.40199 118.005 2.40046 118.096 2.56166C118.082 2.90325 118.011 3.24023 117.977 3.58105C117.818 3.58182 117.66 3.58336 117.503 3.58413C117.601 2.92773 117.712 2.27372 117.813 1.61741ZM69.5686 2.64064C70.8622 1.96974 72.3727 1.83311 73.7996 2.03269C74.8234 2.17086 75.8028 2.57233 76.6511 3.15879C77.1416 3.495 77.5907 3.88803 78.0252 4.2941C77.6712 4.66793 77.3163 5.04176 76.9508 5.40408C76.5468 5.00722 76.1208 4.63108 75.6571 4.30638C74.5038 3.5165 73.0401 3.21559 71.666 3.44357C70.4077 3.65006 69.2444 4.36932 68.488 5.39717C67.8205 6.27993 67.4604 7.37379 67.3907 8.47302C67.2795 9.88468 67.6374 11.3531 68.4873 12.4969C69.2881 13.5938 70.5434 14.3499 71.8914 14.5233C72.88 14.6377 73.9145 14.5311 74.8243 14.1111C75.668 13.6997 76.4097 13.1009 77.045 12.4131C77.4029 12.7464 77.7439 13.0987 78.1018 13.4325C77.3248 14.221 76.4557 14.9494 75.435 15.3969C74.2679 15.9235 72.9558 16.0763 71.6906 15.9373C70.1418 15.7669 68.6666 15.0131 67.6115 13.867C65.7983 11.9019 65.3216 8.8913 66.2442 6.40728C66.832 4.79766 68.0221 3.39521 69.5686 2.64064ZM107.267 1.98356C107.824 1.97742 108.381 1.97965 108.939 1.98195C108.942 2.57916 108.941 3.17644 108.94 3.77357C108.381 3.77281 107.823 3.77972 107.264 3.76974C107.266 3.17414 107.262 2.57847 107.267 1.98356ZM111.788 2.67212C112.275 2.6705 112.763 2.66981 113.25 2.67288C113.25 3.68537 113.25 4.6971 113.251 5.70967C114.361 5.7112 115.472 5.70967 116.583 5.71043C116.583 6.17024 116.581 6.62928 116.584 7.08908C115.473 7.08985 114.362 7.08908 113.251 7.08908C113.25 9.08413 113.25 11.0791 113.251 13.0734C113.265 13.4748 113.36 13.9316 113.707 14.1787C114.172 14.5111 114.78 14.5603 115.331 14.4727C115.759 14.4129 116.148 14.2118 116.544 14.0498C116.546 14.5342 116.548 15.0185 116.543 15.5029C115.976 15.7716 115.357 15.9527 114.724 15.919C113.827 15.9527 112.856 15.6319 112.324 14.8719C111.923 14.3369 111.791 13.6583 111.788 13.0027C111.786 11.033 111.785 9.06332 111.788 7.09284C111.336 7.08517 110.883 7.09054 110.431 7.08977V5.70967C110.882 5.70967 111.335 5.71266 111.787 5.70736C111.786 4.69556 111.785 3.68384 111.788 2.67212ZM51.4638 5.27051C52.0362 4.91126 52.7259 4.81224 53.3896 4.82222C53.4103 5.89919 53.3957 6.97624 53.3973 8.05313C52.4968 8.02865 51.5275 8.25732 50.8936 8.93974C50.1824 9.69285 49.9948 10.7706 49.9663 11.77C49.9617 13.1263 49.9647 14.4836 49.9647 15.8406C48.9432 15.8399 47.9217 15.8399 46.901 15.8406C46.9025 12.2374 46.9001 8.63499 46.9025 5.03255C47.9226 5.03408 48.9433 5.03408 49.9633 5.03255C49.9694 5.72494 49.9541 6.4181 49.9725 7.1105C50.3188 6.39584 50.7633 5.68426 51.4638 5.27051ZM55.8265 5.8255C56.7361 5.15153 57.8764 4.8084 59.0053 4.83988C60.2153 4.82905 61.456 5.21286 62.3626 6.03429C63.3527 6.91091 63.9045 8.19131 64.0953 9.48244C64.1895 10.1541 64.2302 10.8396 64.1328 11.5136C61.6422 11.5044 59.1516 11.5136 56.661 11.509C56.802 12.1776 57.1652 12.8223 57.7507 13.1939C58.393 13.6107 59.2015 13.6552 59.9394 13.547C60.6866 13.4318 61.3372 12.9981 61.8806 12.4907C62.4776 13.005 63.0631 13.5339 63.6539 14.0559C62.8815 15.0346 61.7595 15.7293 60.5327 15.9566C59.1226 16.2199 57.6022 16.0709 56.3339 15.3701C55.261 14.7859 54.4088 13.808 53.9827 12.6612C53.5635 11.5496 53.4968 10.3168 53.7344 9.1562C54.0034 7.84434 54.7399 6.61768 55.8265 5.8255ZM57.4718 7.8643C56.9883 8.30952 56.743 8.94741 56.6144 9.58001C58.1386 9.58154 59.6621 9.5784 61.1863 9.58154C61.0844 8.75251 60.6675 7.88817 59.8813 7.51895C59.1057 7.14965 58.1064 7.27323 57.4718 7.8643ZM36.6963 5.78942C38.2903 5.02648 40.1019 4.7985 41.8499 4.9673C42.8715 5.07937 43.916 5.44706 44.6233 6.2239C45.1375 6.77888 45.441 7.50129 45.579 8.2389C45.7338 8.99654 45.6916 9.77414 45.697 10.5434C45.6962 12.3089 45.697 14.0744 45.6962 15.84C44.7022 15.8376 43.7083 15.8461 42.7144 15.8353C42.719 15.473 42.722 15.1099 42.7128 14.7476C42.4721 14.9226 42.2752 15.1514 42.0238 15.3118C41.0107 16.0134 39.7003 16.1716 38.5094 15.9459C37.5147 15.757 36.5506 15.1621 36.1047 14.2264C35.7628 13.5663 35.7445 12.7979 35.8181 12.0732C35.9261 11.2442 36.3905 10.469 37.0879 10.0053C37.9645 9.42119 39.0443 9.24233 40.0796 9.2408C40.9832 9.22544 41.8882 9.37045 42.7397 9.67373C42.7764 9.05657 42.6002 8.37262 42.0768 7.99572C41.4399 7.53983 40.6062 7.50904 39.8536 7.57821C39.0313 7.62496 38.2351 7.85831 37.4664 8.1431C37.2074 7.35921 36.953 6.57393 36.6963 5.78942ZM40.1985 11.1443C39.7809 11.2157 39.3517 11.3685 39.0659 11.6955C38.6114 12.2129 38.636 13.1386 39.2138 13.557C39.7219 13.9346 40.3993 13.9485 41.0002 13.8517C41.6822 13.7397 42.3743 13.3544 42.6501 12.6903C42.8241 12.3112 42.7728 11.8866 42.7742 11.4829C41.9656 11.1451 41.066 11.0123 40.1985 11.1443ZM87.2442 6.21161C88.8544 5.13618 91.1893 5.25746 92.6331 6.56932C93.6945 7.50505 94.2317 8.91978 94.3091 10.3123C94.3291 10.6669 94.3428 11.0284 94.2562 11.3762C91.656 11.3731 89.0566 11.3746 86.4564 11.3746C86.576 12.4446 87.1746 13.4655 88.0827 14.0505C88.7954 14.5095 89.679 14.6477 90.5097 14.5264C91.5534 14.4067 92.4501 13.7388 93.1229 12.9658C93.4869 13.2591 93.8279 13.5807 94.1805 13.8886C93.6832 14.4328 93.1329 14.9363 92.4961 15.3118C91.7267 15.803 90.7979 15.9896 89.8952 15.9811C88.7718 16.008 87.6452 15.6127 86.7762 14.9011C85.7393 14.0675 85.0987 12.7917 84.9585 11.4744C84.8741 10.6162 84.9247 9.73345 85.2036 8.9121C85.556 7.81747 86.2733 6.83415 87.2442 6.21161ZM88.2627 7.22871C87.2396 7.77917 86.6235 8.89675 86.4587 10.0222C88.5646 10.0229 90.6713 10.0205 92.778 10.0237C92.6922 9.3835 92.496 8.74791 92.1442 8.2029C91.748 7.5888 91.1249 7.11441 90.4084 6.95091C89.6905 6.79961 88.9095 6.86409 88.2627 7.22871ZM83.8846 5.6144C84.2433 5.55146 84.6088 5.57219 84.9713 5.57065C84.9705 6.08496 84.9752 6.60003 84.969 7.11433C84.0379 7.06513 83.067 7.2862 82.3312 7.88111C81.2737 8.71022 80.7833 10.0827 80.7594 11.396C80.7548 12.8515 80.7587 14.3077 80.7579 15.7631C80.2774 15.7639 79.7969 15.7631 79.3171 15.7639C79.3179 12.4124 79.3179 9.06102 79.3171 5.70967C79.7977 5.7112 80.2782 5.70967 80.7587 5.71043C80.7602 6.33144 80.7503 6.95244 80.7633 7.57345C80.9296 7.44833 81.0323 7.2611 81.1756 7.11134C81.8691 6.31754 82.8393 5.76332 83.8846 5.6144ZM107.378 5.71036C107.859 5.70959 108.339 5.71036 108.82 5.70959C108.819 9.06094 108.819 12.4124 108.82 15.7638C108.339 15.763 107.859 15.7646 107.379 15.7623C107.379 12.4117 107.381 9.06102 107.378 5.71036ZM16.6855 8.07309C16.7 8.03701 16.73 7.9657 16.7453 7.92962C16.7469 7.96263 16.7492 8.02942 16.7506 8.06235L16.6855 8.07309ZM18.1745 10.412C18.488 10.2877 18.9295 10.2547 19.1355 10.5778C19.3555 10.9532 19.2805 11.4145 19.1854 11.8168C18.9233 12.8124 18.3271 13.7113 17.5347 14.3637C16.838 14.915 15.9629 15.1751 15.1068 15.3563C13.9443 15.5874 12.7557 15.6334 11.574 15.6718C9.56079 15.7025 7.543 15.5736 5.55588 15.2434C3.77413 14.9342 1.99162 14.495 0.363143 13.6882C0.24436 13.6429 0.154698 13.5531 0.078064 13.4556C0.274248 13.2952 0.534804 13.385 0.763097 13.3843C3.11653 13.471 5.47917 13.3758 7.81506 13.0726C9.42277 12.8661 11.0046 12.5007 12.5763 12.1131C14.467 11.631 16.3468 11.0967 18.1745 10.412ZM12.7174 10.9716C12.7534 10.9563 12.8255 10.9263 12.8615 10.9118L12.8501 10.9785L12.7765 11.0092L12.7174 10.9716ZM12.2569 11.1221L12.4009 11.0607L12.3902 11.1259C12.3572 11.1252 12.2906 11.1228 12.2569 11.1221ZM11.7219 11.2817C11.7572 11.2656 11.8278 11.2342 11.863 11.2188L11.8538 11.284C11.8208 11.284 11.7549 11.2825 11.7219 11.2817ZM11.1809 11.4276C11.2169 11.4138 11.2897 11.3854 11.3257 11.3716L11.3127 11.4376L11.2392 11.466L11.1809 11.4276ZM10.8782 11.5059C10.9135 11.4928 10.9855 11.4667 11.0207 11.4536L11.0077 11.5182L10.8782 11.5059ZM10.5732 11.5926C10.6085 11.5788 10.6782 11.5504 10.7126 11.5366L10.7019 11.6019L10.5732 11.5926ZM3.3964 12.1077L3.46691 12.0724L3.52906 12.1061C3.49381 12.1231 3.42407 12.1576 3.38882 12.1745L3.3964 12.1077Z" fill="#006A5C"/>
<path d="M118.096 2.56158C118.005 2.40038 118.256 2.40191 118.165 2.56158H118.096ZM15.6518 4.96423C15.8548 4.80994 16.1315 4.72865 16.3775 4.82076C16.724 5.00184 16.8327 5.42096 16.9063 5.7756C17.0028 6.48949 16.986 7.24713 16.7453 7.92962C16.73 7.9657 16.7 8.03701 16.6856 8.07309C16.7185 8.17749 16.6465 8.27582 16.6166 8.37177C16.4886 8.66577 16.3445 8.95823 16.1293 9.1985C15.2809 10.1058 14.087 10.5449 12.9344 10.921L12.8616 10.9118C12.8256 10.9264 12.7535 10.9564 12.7175 10.9717C12.6271 11.0308 12.5121 11.0945 12.401 11.0607L12.2569 11.1222C12.1382 11.1828 12.0002 11.2534 11.863 11.2189C11.8278 11.2342 11.7572 11.2657 11.722 11.2818C11.6001 11.334 11.4622 11.4115 11.3258 11.3716C11.2897 11.3854 11.2169 11.4139 11.1809 11.4276L11.1089 11.4806L11.0208 11.4536C10.9856 11.4667 10.9135 11.4928 10.8783 11.5059L10.7986 11.5618L10.7128 11.5365C10.6784 11.5504 10.6086 11.5788 10.5734 11.5926C10.4315 11.6494 10.2813 11.677 10.1342 11.7131C7.78847 12.2565 5.39519 12.5805 2.99424 12.7409C2.71452 12.7585 2.43404 12.7762 2.15509 12.7448L2.15816 12.5674C2.57045 12.4492 2.96818 12.2389 3.38898 12.1744C3.42423 12.1575 3.49397 12.123 3.52922 12.106C3.69774 11.9979 3.89706 11.951 4.08014 11.8735C5.72165 11.2194 7.32714 10.4718 8.86902 9.60672C10.5311 8.68719 12.0493 7.53722 13.5943 6.43798C13.5981 6.43576 13.605 6.43031 13.6088 6.42724C14.2884 5.9376 14.9694 5.44993 15.6518 4.96423Z" fill="#019E93"/>
</g>
<defs>
<clipPath id="clip0_44_301">
<rect width="120" height="15.5779" fill="white" transform="translate(0 0.50061)"/>
</clipPath>
</defs>
</svg>
