<?xml version="1.0" encoding="UTF-8" standalone="no"?>
<svg
   width="2.2137637in"
   height="1.1176713in"
   viewBox="0 0 212.52132 107.29644"
   fill="none"
   version="1.1"
   id="svg21"
   sodipodi:docname="logo-whiteBG.svg"
   inkscape:export-filename="/home/pc/Public/lakewooddental/tailwind/lakewood-dental-master/src/images/logo.png"
   inkscape:export-xdpi="300"
   inkscape:export-ydpi="300"
   inkscape:version="1.1.2 (0a00cf5339, 2022-02-04)"
   xmlns:inkscape="http://www.inkscape.org/namespaces/inkscape"
   xmlns:sodipodi="http://sodipodi.sourceforge.net/DTD/sodipodi-0.dtd"
   xmlns:xlink="http://www.w3.org/1999/xlink"
   xmlns="http://www.w3.org/2000/svg"
   xmlns:svg="http://www.w3.org/2000/svg">
  <sodipodi:namedview
     id="namedview23"
     pagecolor="#ffffff"
     bordercolor="#666666"
     borderopacity="1.0"
     inkscape:pageshadow="2"
     inkscape:pageopacity="0.0"
     inkscape:pagecheckerboard="true"
     showgrid="false"
     units="in"
     fit-margin-top="0"
     fit-margin-left="0"
     fit-margin-right="0"
     fit-margin-bottom="0"
     inkscape:zoom="2.480402"
     inkscape:cx="22.375406"
     inkscape:cy="73.173624"
     inkscape:window-width="1920"
     inkscape:window-height="1023"
     inkscape:window-x="0"
     inkscape:window-y="0"
     inkscape:window-maximized="1"
     inkscape:current-layer="layer1"
     inkscape:document-units="in" />
  <defs
     id="defs19">
    <linearGradient
       inkscape:collect="always"
       id="linearGradient1334">
      <stop
         style="stop-color:#ffffff;stop-opacity:1;"
         offset="0"
         id="stop1330" />
      <stop
         style="stop-color:#ffffff;stop-opacity:0;"
         offset="1"
         id="stop1332" />
    </linearGradient>
    <clipPath
       id="clip0_8_11">
      <rect
         width="46"
         height="42.07"
         fill="#ffffff"
         transform="translate(14,15.0917)"
         id="rect16"
         x="0"
         y="0" />
    </clipPath>
    <linearGradient
       inkscape:collect="always"
       xlink:href="#linearGradient1334"
       id="linearGradient1336"
       x1="-2.8499999"
       y1="50.22683"
       x2="203.6239"
       y2="50.22683"
       gradientUnits="userSpaceOnUse"
       gradientTransform="translate(427.61308,357.77318)" />
  </defs>
  <g
     inkscape:groupmode="layer"
     id="layer1"
     inkscape:label="Layer 1"
     transform="translate(-421.73936,-354.35178)"
     sodipodi:insensitive="true">
    <g
       inkscape:groupmode="layer"
       id="layer2"
       inkscape:label="Layer 2"
       sodipodi:insensitive="true">
      <rect
         style="font-variation-settings:normal;opacity:0;vector-effect:none;fill:#666666;fill-opacity:0.208333;fill-rule:evenodd;stroke:#ffffff;stroke-width:5.7;stroke-linecap:butt;stroke-linejoin:miter;stroke-miterlimit:4;stroke-dasharray:none;stroke-dashoffset:0;stroke-opacity:1;paint-order:fill markers stroke;stop-color:#000000;stop-opacity:1"
         id="rect881"
         width="117.31969"
         height="139.09036"
         x="-129.41451"
         y="-147.15356" />
      <rect
         style="font-variation-settings:normal;opacity:0;vector-effect:none;fill:#666666;fill-opacity:0.208333;fill-rule:evenodd;stroke:#ffffff;stroke-width:5.7;stroke-linecap:butt;stroke-linejoin:miter;stroke-miterlimit:4;stroke-dasharray:none;stroke-dashoffset:0;stroke-opacity:1;paint-order:fill markers stroke;stop-color:#000000;stop-opacity:1"
         id="rect883"
         width="58.861423"
         height="65.715164"
         x="-70.956238"
         y="-73.778366" />
      <rect
         style="font-variation-settings:normal;opacity:0;vector-effect:none;fill:url(#linearGradient1336);fill-opacity:1;fill-rule:evenodd;stroke:#ffffff;stroke-width:5.7;stroke-linecap:butt;stroke-linejoin:miter;stroke-miterlimit:4;stroke-dasharray:none;stroke-dashoffset:0;stroke-opacity:1;paint-order:fill markers stroke;stop-color:#000000;stop-opacity:1"
         id="rect888"
         width="200.7739"
         height="100.32024"
         x="427.61307"
         y="357.83987"
         ry="0" />
      <rect
         style="font-variation-settings:normal;opacity:1;vector-effect:none;fill:#ffffff;fill-opacity:1;fill-rule:evenodd;stroke:#ffffff;stroke-width:5.7;stroke-linecap:butt;stroke-linejoin:miter;stroke-miterlimit:4;stroke-dasharray:none;stroke-dashoffset:0;stroke-opacity:1;paint-order:fill markers stroke;stop-color:#000000;stop-opacity:1"
         id="rect1531"
         width="206.82132"
         height="101.59644"
         x="424.58936"
         y="357.20178" />
    </g>
    <g
       id="g847"
       transform="translate(430.35402,361.28509)">
      <path
         d="m 84.912,21.0747 v -8.528 h -2.028 v 10.556 h 6.578 v -2.028 z m 18.259,-1.69 -0.234,-0.494 -2.704,-6.266 h -1.9501 l -4.524,10.426 h 2.184 c 0.286,-0.676 0.728,-1.586 1.04,-2.288 h 4.5501 l 1.04,2.288 h 2.158 z m -5.3041,-0.65 c 0.494,-1.17 0.936,-2.262 1.404,-3.354 l 1.4301,3.354 z m 13.6791,4.342 v -3.432 l 0.572,-0.598 4.316,4.03 h 2.86 l -5.746,-5.434 5.07,-5.044 h -2.86 l -4.212,4.212 v -4.212 h -2.028 v 10.478 z m 19.861,-8.528 v -2.002 h -7.436 v 10.556 h 7.436 v -2.028 h -5.434 v -2.47 h 4.836 v -2.028 h -4.836 v -2.028 z m 18.203,-1.95 c -0.858,2.366 -1.794,4.862 -2.652,7.28 l -2.08,-5.72 h -1.898 c -0.624,1.794 -1.456,3.9 -2.106,5.746 l -2.6,-7.306 h -2.158 l 3.796,10.478 h 1.924 c 0.624,-1.794 1.43,-3.874 2.08,-5.694 l 2.08,5.694 h 1.924 l 3.796,-10.478 z m 10.969,10.53 c 1.378,0 2.626,-0.546 3.588,-1.586 0.962,-1.014 1.482,-2.314 1.482,-3.744 0,-1.43 -0.52,-2.704 -1.482,-3.744 -0.962,-0.988 -2.21,-1.534 -3.588,-1.534 -1.352,0 -2.652,0.546 -3.614,1.534 -0.936,1.066 -1.43,2.34 -1.43,3.744 0,1.43 0.494,2.73 1.43,3.744 0.962,1.04 2.262,1.586 3.614,1.586 z m 0,-8.606 c 1.69,0 3.068,1.482 3.068,3.276 0,1.82 -1.378,3.302 -3.068,3.302 -1.664,0 -3.042,-1.482 -3.042,-3.302 0,-1.794 1.378,-3.276 3.042,-3.276 z m 14.787,8.606 c 1.378,0 2.626,-0.546 3.588,-1.586 0.962,-1.014 1.482,-2.314 1.482,-3.744 0,-1.43 -0.52,-2.704 -1.482,-3.744 -0.962,-0.988 -2.21,-1.534 -3.588,-1.534 -1.352,0 -2.652,0.546 -3.614,1.534 -0.936,1.066 -1.43,2.34 -1.43,3.744 0,1.43 0.494,2.73 1.43,3.744 0.962,1.04 2.262,1.586 3.614,1.586 z m 0,-8.606 c 1.69,0 3.068,1.482 3.068,3.276 0,1.82 -1.378,3.302 -3.068,3.302 -1.664,0 -3.042,-1.482 -3.042,-3.302 0,-1.794 1.378,-3.276 3.042,-3.276 z m 18.66,2.548 c -0.286,-2.834 -2.574,-4.524 -5.486,-4.602 h -2.834 v 10.634 h 1.924 c 3.744,0 6.24,-1.898 6.396,-5.226 z m -2.028,0.91 c 0,1.924 -1.872,3.068 -4.264,3.094 v -6.604 l 0.286,-0.026 c 3.172,0 3.978,1.872 3.978,3.432 z m -4.524,3.094 0.26,0.26 v -0.26 h -0.104 z m -96.166,15.996 c -0.286,-2.834 -2.574,-4.524 -5.486,-4.602 h -2.834 v 10.634 h 1.924 c 3.744,0 6.24,-1.898 6.396,-5.226 z m -2.028,0.91 c 0,1.924 -1.872,3.068 -4.264,3.094 v -6.604 l 0.286,-0.026 c 3.172,0 3.978,1.872 3.978,3.432 z m -4.524,3.094 0.26,0.26 v -0.26 h -0.104 z m 19.186,-6.526 v -2.002 h -7.4364 v 10.556 h 7.4364 v -2.028 h -5.4344 v -2.47 h 4.8364 v -2.028 h -4.8364 v -2.028 z m 5.748,8.528 h 2.028 v -6.89 l 4.862,6.864 h 2.028 v -10.478 h -2.028 v 7.02 l -4.914,-7.02 h -1.976 z m 21.524,-10.452 h -7.748 v 2.002 h 2.886 v 8.502 h 2.028 v -8.502 h 2.834 z m 12.228,6.76 -0.234,-0.494 -2.704,-6.266 h -1.95 l -4.524,10.426 h 2.184 c 0.286,-0.676 0.728,-1.586 1.04,-2.288 h 4.55 l 1.04,2.288 h 2.158 z m -5.304,-0.65 c 0.494,-1.17 0.936,-2.262 1.404,-3.354 l 1.43,3.354 z m 13.419,2.34 v -8.528 h -2.028 v 10.556 h 6.578 v -2.028 z m -64.331,21.976 c 0.702,0 1.378,-0.156 2.054,-0.442 0.598,-0.312 1.144,-0.702 1.638,-1.222 l 0.65,-0.728 -1.482,-1.404 -0.676,0.754 h 0.026 c -0.624,0.676 -1.378,1.014 -2.21,1.014 -1.638,0 -3.016,-1.43 -3.016,-3.172 0,-1.768 1.378,-3.224 3.016,-3.224 0.832,0 1.586,0.364 2.21,1.014 H 89.41 l 0.676,0.754 1.482,-1.378 -0.65,-0.728 c -0.494,-0.546 -1.04,-0.91 -1.638,-1.222 -0.676,-0.312 -1.352,-0.442 -2.054,-0.442 -1.378,0 -2.6,0.546 -3.562,1.534 -0.962,0.988 -1.482,2.262 -1.482,3.692 0,1.378 0.52,2.678 1.482,3.666 0.962,0.988 2.184,1.534 3.562,1.534 z m 17.595,-3.666 -0.234,-0.494 -2.704,-6.266 h -1.9497 l -4.524,10.426 h 2.184 c 0.286,-0.676 0.728,-1.586 1.04,-2.288 h 4.5497 l 1.04,2.288 h 2.158 z m -5.3037,-0.65 c 0.4937,-1.17 0.9357,-2.262 1.4037,-3.354 l 1.43,3.354 z m 13.6937,1.274 c 0.468,-0.026 0.91,-0.104 1.326,-0.182 l 2.756,3.25 h 2.626 l -3.406,-4.082 c 1.092,-0.702 1.742,-1.716 1.768,-2.782 0,-0.91 -0.364,-1.742 -1.014,-2.366 -0.65,-0.572 -1.898,-1.3 -4.082,-1.3 h -2.002 v 10.53 h 2.028 z m 0,-5.46 c 1.092,0 2.158,0.286 2.652,0.78 0.286,0.26 0.39,0.546 0.39,0.832 0,0.39 -0.26,0.832 -0.91,1.17 -0.598,0.338 -1.378,0.598 -2.132,0.676 z m 19.059,0 v -2.002 h -7.436 v 10.556 h 7.436 v -2.028 h -5.434 v -2.47 h 4.836 v -2.028 h -4.836 v -2.028 z"
         fill="#1f3b53"
         id="path2" />
      <path
         d="m 3.552,93.2671 c 0.432,-0.024 1.176,-0.048 1.8,-0.528 1.008,-0.768 1.08,-2.16 1.08,-3.24 0,-0.504 0,-0.936 0,-1.44 0,-0.816 0,-1.632 -0.024,-2.4 -0.024,-0.48 -0.024,-0.888 -0.048,-1.944 H 4.92 l 0.048,1.968 c 0.024,0.768 0.024,1.584 0.024,2.376 0,0.504 0,0.96 0,1.44 0,0.768 -0.048,1.752 -0.504,2.088 -0.264,0.192 -0.576,0.264 -0.888,0.264 -0.576,0 -1.176,-0.264 -1.512,-0.552 l -0.48,-0.504 -1.08,0.96 0.504,0.552 c 0.6,0.648 1.56,0.936 2.52,0.96 z m 17.6927,-3.24 -0.216,-0.48 -2.496,-5.808 h -1.56 l -4.08,9.432 h 1.56 l 0.96,-2.184 h 4.656 l 0.96,2.184 h 1.56 z m -5.208,-0.48 1.728,-4.008 1.704,4.008 z m 20.1146,-5.832 -2.832,4.2 -2.856,-4.2 h -1.464 v 9.504 h 1.44 v -6.96 l 1.992,2.952 0.12,0.144 0.072,0.144 0.432,0.624 0.264,0.384 0.24,-0.384 0.432,-0.624 0.072,-0.144 0.12,-0.144 2.016,-2.952 v 6.96 h 1.44 v -9.096 -0.408 z m 15.5248,1.392 v -1.44 h -5.16 -1.44 v 1.44 2.4 1.44 2.832 1.44 h 6.6 v -1.44 h -5.16 v -2.832 h 4.584 v -1.44 h -4.584 v -2.4 z m 10.6343,8.256 c 0.336,0 1.008,-0.048 1.728,-0.36 0.768,-0.336 1.296,-0.912 1.584,-1.656 0.072,-0.288 0.144,-0.552 0.144,-0.84 0,-0.36 -0.072,-0.672 -0.216,-0.984 -0.408,-0.792 -1.248,-1.392 -2.568,-1.824 -0.312,-0.096 -0.6,-0.192 -0.888,-0.264 -1.296,-0.36 -1.92,-0.576 -1.92,-1.392 0,-0.168 0.096,-0.36 0.216,-0.504 0.288,-0.36 0.888,-0.576 1.656,-0.624 0.888,0 1.68,0.288 2.064,0.696 l 0.528,0.456 0.936,-1.08 -0.528,-0.456 c -0.36,-0.312 -0.768,-0.576 -1.2,-0.744 -0.6,-0.24 -1.224,-0.312 -1.896,-0.312 -1.488,0.096 -2.28,0.696 -2.664,1.152 -0.36,0.408 -0.552,0.912 -0.552,1.44 0,0.888 0.456,1.632 1.2,2.088 0.504,0.336 1.128,0.48 1.8,0.672 0.264,0.072 0.528,0.168 0.792,0.24 0.912,0.288 1.512,0.672 1.728,1.08 0.024,0.072 0.072,0.192 0.072,0.336 0,0.096 -0.024,0.24 -0.072,0.384 -0.144,0.36 -0.408,0.648 -0.816,0.816 -0.48,0.216 -0.96,0.24 -1.128,0.24 -0.96,0 -1.8,-0.336 -2.52,-0.984 l -0.552,-0.48 -0.96,1.08 0.552,0.48 c 0.984,0.888 2.16,1.344 3.48,1.344 z m 24.062,-4.824 c -0.072,-0.096 -0.144,-0.168 -0.216,-0.24 0.504,-0.456 0.816,-1.152 0.816,-1.92 0,-1.344 -0.936,-2.544 -2.256,-2.616 l -4.152,-0.024 v 9.48 l 4.248,-0.024 c 1.296,-0.168 2.304,-1.344 2.304,-2.736 0,-0.72 -0.264,-1.392 -0.744,-1.92 z m -4.368,-3.36 h 2.352 c 0.648,0 1.176,0.528 1.176,1.2 0,0.672 -0.528,1.296 -1.176,1.296 l -2.352,-0.024 z m 2.496,6.6 h -2.496 v -2.688 h 2.496 c 0.672,0 1.176,0.648 1.176,1.368 0,0.72 -0.504,1.32 -1.176,1.32 z m 0.168,1.44 h -0.408 z m 18.6396,-1.44 v -8.112 h -1.44 v 9.552 h 0.24 5.52 v -1.44 z m 18.03,-6.672 v -1.44 h -5.16 -1.44 v 1.44 2.4 1.44 2.832 1.44 h 6.6 v -1.44 h -5.16 v -2.832 h 4.584 v -1.44 h -4.584 v -2.4 z m 13.946,0 v -1.44 h -5.16 -1.44 v 1.44 2.4 1.44 2.832 1.44 h 6.6 v -1.44 h -5.16 v -2.832 h 4.584 v -1.44 h -4.584 v -2.4 z m 9.339,3.768 c -0.096,-0.144 -0.288,-0.24 -0.456,-0.24 -0.216,-0.024 -0.552,-0.024 -0.72,0.096 -0.192,0.12 -0.264,0.336 -0.264,0.552 -0.024,0.216 0.024,0.432 0.048,0.648 0.096,0.696 0.048,1.416 -0.168,2.088 0.168,0.072 0.36,0 0.504,-0.072 0.144,-0.12 0.264,-0.264 0.36,-0.432 0.408,-0.648 0.672,-1.392 0.744,-2.16 0.024,-0.144 0.024,-0.336 -0.048,-0.48 z m 23.05,-1.128 c -0.24,-2.544 -2.304,-4.08 -4.968,-4.152 h -2.448 v 9.624 h 1.584 c 3.432,0 5.688,-1.704 5.832,-4.728 0,-0.216 0,-0.744 0,-0.744 z m -1.44,0.84 c 0,2.016 -1.92,3.192 -4.392,3.192 h -0.144 v -6.744 l 0.528,-0.024 c 3.192,0 4.008,1.896 4.008,3.48 z m 15.574,-0.84 c -0.24,-2.544 -2.304,-4.08 -4.968,-4.152 h -2.448 v 9.624 h 1.584 c 3.432,0 5.688,-1.704 5.832,-4.728 0,-0.216 0,-0.744 0,-0.744 z m -1.44,0.84 c 0,2.016 -1.92,3.192 -4.392,3.192 h -0.144 v -6.744 l 0.528,-0.024 c 3.192,0 4.008,1.896 4.008,3.48 z m 11.469,4.776 c 0.336,0 1.008,-0.048 1.728,-0.36 0.768,-0.336 1.296,-0.912 1.584,-1.656 0.072,-0.288 0.144,-0.552 0.144,-0.84 0,-0.36 -0.072,-0.672 -0.216,-0.984 -0.408,-0.792 -1.248,-1.392 -2.568,-1.824 -0.312,-0.096 -0.6,-0.192 -0.888,-0.264 -1.296,-0.36 -1.92,-0.576 -1.92,-1.392 0,-0.168 0.096,-0.36 0.216,-0.504 0.288,-0.36 0.888,-0.576 1.656,-0.624 0.888,0 1.68,0.288 2.064,0.696 l 0.528,0.456 0.936,-1.08 -0.528,-0.456 c -0.36,-0.312 -0.768,-0.576 -1.2,-0.744 -0.6,-0.24 -1.224,-0.312 -1.896,-0.312 -1.488,0.096 -2.28,0.696 -2.664,1.152 -0.36,0.408 -0.552,0.912 -0.552,1.44 0,0.888 0.456,1.632 1.2,2.088 0.504,0.336 1.128,0.48 1.8,0.672 0.264,0.072 0.528,0.168 0.792,0.24 0.912,0.288 1.512,0.672 1.728,1.08 0.024,0.072 0.072,0.192 0.072,0.336 0,0.096 -0.024,0.24 -0.072,0.384 -0.144,0.36 -0.408,0.648 -0.816,0.816 -0.48,0.216 -0.96,0.24 -1.128,0.24 -0.96,0 -1.8,-0.336 -2.52,-0.984 l -0.552,-0.48 -0.96,1.08 0.552,0.48 c 0.984,0.888 2.16,1.344 3.48,1.344 z"
         fill="#4294c2"
         id="path4" />
      <rect
         y="0.066711403"
         width="72"
         height="72.120003"
         fill="#1f3b53"
         id="rect6"
         x="0" />
      <rect
         x="5"
         y="5.07336"
         width="62"
         height="62.106701"
         fill="#1f3b53"
         stroke="#ffffff"
         stroke-width="2"
         id="rect8" />
      <g
         clip-path="url(#clip0_8_11)"
         id="g14">
        <path
           d="m 52.9057,19.1899 c -5.3934,-5.4976 -11.9064,0.0666 -11.9064,0.0666 -4.9735,3.876 -10.2055,14.86 -25.3845,22.4455"
           stroke="#ffffff"
           stroke-width="2"
           stroke-linecap="round"
           stroke-linejoin="round"
           id="path10" />
        <path
           d="m 34.2602,18.4235 c -3.531,-1.9546 -6.6099,-1.466 -8.4077,-0.8218 -3.8647,1.3883 -6.696,6.2749 -4.9735,12.4166 1.2918,4.6091 5.5656,25.0777 9.5165,25.4664 4.5429,0.4442 0.0646,-14.438 4.3599,-14.3158 0.7321,0.0222 1.1734,0.311 1.6579,1.3883 1.1088,2.4988 1.787,9.007 1.9054,10.2731 0.1184,1.2661 0.3122,2.5211 2.2715,2.6655 3.2296,0.2443 3.9724,-7.008 6.9328,-13.7938 4.909,-11.195 10.8622,-9.3514 10.8622,-9.3514"
           stroke="#ffffff"
           stroke-width="2"
           stroke-linecap="round"
           stroke-linejoin="round"
           id="path12" />
      </g>
    </g>
    <rect
       style="font-variation-settings:normal;opacity:0;vector-effect:none;fill:#ffffff;fill-opacity:0.208333;fill-rule:evenodd;stroke:#ffffff;stroke-width:5.7;stroke-linecap:butt;stroke-linejoin:miter;stroke-miterlimit:4;stroke-dasharray:none;stroke-dashoffset:0;stroke-opacity:1;paint-order:fill markers stroke;stop-color:#000000;stop-opacity:1"
       id="rect1340"
       width="59.667747"
       height="17.335899"
       x="-42.331848"
       y="-47.572933" />
    <rect
       style="font-variation-settings:normal;opacity:0;vector-effect:none;fill:#666666;fill-opacity:0.208333;fill-rule:evenodd;stroke:#ffffff;stroke-width:5.7;stroke-linecap:butt;stroke-linejoin:miter;stroke-miterlimit:4;stroke-dasharray:none;stroke-dashoffset:0;stroke-opacity:1;paint-order:fill markers stroke;stop-color:#000000;stop-opacity:1"
       id="rect1408"
       width="241.08995"
       height="116.11021"
       x="208.03079"
       y="132.23663" />
  </g>
</svg>
