<svg width="197" height="98" viewBox="0 0 197 98" fill="none" xmlns="http://www.w3.org/2000/svg">
<path d="M84.912 21.0747V12.5467H82.884V23.1027H89.462V21.0747H84.912ZM103.171 19.3847L102.937 18.8907L100.233 12.6247H98.2829L93.7589 23.0507H95.9429C96.2289 22.3747 96.6709 21.4647 96.9829 20.7627H101.533L102.573 23.0507H104.731L103.171 19.3847ZM97.8669 18.7347C98.3609 17.5647 98.8029 16.4727 99.2709 15.3807L100.701 18.7347H97.8669ZM111.546 23.0767V19.6447L112.118 19.0467L116.434 23.0767H119.294L113.548 17.6427L118.618 12.5987H115.758L111.546 16.8107V12.5987H109.518V23.0767H111.546ZM131.407 14.5487V12.5467H123.971V23.1027H131.407V21.0747H125.973V18.6047H130.809V16.5767H125.973V14.5487H131.407ZM149.61 12.5987C148.752 14.9647 147.816 17.4607 146.958 19.8787L144.878 14.1587H142.98C142.356 15.9527 141.524 18.0587 140.874 19.9047L138.274 12.5987H136.116L139.912 23.0767H141.836C142.46 21.2827 143.266 19.2027 143.916 17.3827L145.996 23.0767H147.92L151.716 12.5987H149.61ZM160.579 23.1287C161.957 23.1287 163.205 22.5827 164.167 21.5427C165.129 20.5287 165.649 19.2287 165.649 17.7987C165.649 16.3687 165.129 15.0947 164.167 14.0547C163.205 13.0667 161.957 12.5207 160.579 12.5207C159.227 12.5207 157.927 13.0667 156.965 14.0547C156.029 15.1207 155.535 16.3947 155.535 17.7987C155.535 19.2287 156.029 20.5287 156.965 21.5427C157.927 22.5827 159.227 23.1287 160.579 23.1287ZM160.579 14.5227C162.269 14.5227 163.647 16.0047 163.647 17.7987C163.647 19.6187 162.269 21.1007 160.579 21.1007C158.915 21.1007 157.537 19.6187 157.537 17.7987C157.537 16.0047 158.915 14.5227 160.579 14.5227ZM175.366 23.1287C176.744 23.1287 177.992 22.5827 178.954 21.5427C179.916 20.5287 180.436 19.2287 180.436 17.7987C180.436 16.3687 179.916 15.0947 178.954 14.0547C177.992 13.0667 176.744 12.5207 175.366 12.5207C174.014 12.5207 172.714 13.0667 171.752 14.0547C170.816 15.1207 170.322 16.3947 170.322 17.7987C170.322 19.2287 170.816 20.5287 171.752 21.5427C172.714 22.5827 174.014 23.1287 175.366 23.1287ZM175.366 14.5227C177.056 14.5227 178.434 16.0047 178.434 17.7987C178.434 19.6187 177.056 21.1007 175.366 21.1007C173.702 21.1007 172.324 19.6187 172.324 17.7987C172.324 16.0047 173.702 14.5227 175.366 14.5227ZM194.026 17.0707C193.74 14.2367 191.452 12.5467 188.54 12.4687H185.706V23.1027H187.63C191.374 23.1027 193.87 21.2047 194.026 17.8767V17.0707ZM191.998 17.9807C191.998 19.9047 190.126 21.0487 187.734 21.0747V14.4707L188.02 14.4447C191.192 14.4447 191.998 16.3167 191.998 17.8767V17.9807ZM187.474 21.0747L187.734 21.3347V21.0747H187.63H187.474ZM91.308 37.0707C91.022 34.2367 88.734 32.5467 85.822 32.4687H82.988V43.1027H84.912C88.656 43.1027 91.152 41.2047 91.308 37.8767V37.0707ZM89.28 37.9807C89.28 39.9047 87.408 41.0487 85.016 41.0747V34.4707L85.302 34.4447C88.474 34.4447 89.28 36.3167 89.28 37.8767V37.9807ZM84.756 41.0747L85.016 41.3347V41.0747H84.912H84.756ZM103.942 34.5487V32.5467H96.5056V43.1027H103.942V41.0747H98.5076V38.6047H103.344V36.5767H98.5076V34.5487H103.942ZM109.69 43.0767H111.718V36.1867L116.58 43.0507H118.608V32.5727H116.58V39.5927L111.666 32.5727H109.69V43.0767ZM131.214 32.6247H123.466V34.6267H126.352V43.1287H128.38V34.6267H131.214V32.6247ZM143.442 39.3847L143.208 38.8907L140.504 32.6247H138.554L134.03 43.0507H136.214C136.5 42.3747 136.942 41.4647 137.254 40.7627H141.804L142.844 43.0507H145.002L143.442 39.3847ZM138.138 38.7347C138.632 37.5647 139.074 36.4727 139.542 35.3807L140.972 38.7347H138.138ZM151.557 41.0747V32.5467H149.529V43.1027H156.107V41.0747H151.557ZM87.226 63.0507C87.928 63.0507 88.604 62.8947 89.28 62.6087C89.878 62.2967 90.424 61.9067 90.918 61.3867L91.568 60.6587L90.086 59.2547L89.41 60.0087H89.436C88.812 60.6847 88.058 61.0227 87.226 61.0227C85.588 61.0227 84.21 59.5927 84.21 57.8507C84.21 56.0827 85.588 54.6267 87.226 54.6267C88.058 54.6267 88.812 54.9907 89.436 55.6407H89.41L90.086 56.3947L91.568 55.0167L90.918 54.2887C90.424 53.7427 89.878 53.3787 89.28 53.0667C88.604 52.7547 87.928 52.6247 87.226 52.6247C85.848 52.6247 84.626 53.1707 83.664 54.1587C82.702 55.1467 82.182 56.4207 82.182 57.8507C82.182 59.2287 82.702 60.5287 83.664 61.5167C84.626 62.5047 85.848 63.0507 87.226 63.0507ZM104.821 59.3847L104.587 58.8907L101.883 52.6247H99.9333L95.4093 63.0507H97.5933C97.8793 62.3747 98.3213 61.4647 98.6333 60.7627H103.183L104.223 63.0507H106.381L104.821 59.3847ZM99.5173 58.7347C100.011 57.5647 100.453 56.4727 100.921 55.3807L102.351 58.7347H99.5173ZM113.211 60.0087C113.679 59.9827 114.121 59.9047 114.537 59.8267L117.293 63.0767H119.919L116.513 58.9947C117.605 58.2927 118.255 57.2787 118.281 56.2127C118.281 55.3027 117.917 54.4707 117.267 53.8467C116.617 53.2747 115.369 52.5467 113.185 52.5467H111.183V63.0767H113.211V60.0087ZM113.211 54.5487C114.303 54.5487 115.369 54.8347 115.863 55.3287C116.149 55.5887 116.253 55.8747 116.253 56.1607C116.253 56.5507 115.993 56.9927 115.343 57.3307C114.745 57.6687 113.965 57.9287 113.211 58.0067V54.5487ZM132.27 54.5487V52.5467H124.834V63.1027H132.27V61.0747H126.836V58.6047H131.672V56.5767H126.836V54.5487H132.27Z" fill="#1F3B53"/>
<path d="M3.552 93.2671C3.984 93.2431 4.728 93.2191 5.352 92.7391C6.36 91.9711 6.432 90.5791 6.432 89.4991C6.432 88.9951 6.432 88.5631 6.432 88.0591C6.432 87.2431 6.432 86.4271 6.408 85.6591C6.384 85.1791 6.384 84.7711 6.36 83.7151H4.92L4.968 85.6831C4.992 86.4511 4.992 87.2671 4.992 88.0591C4.992 88.5631 4.992 89.0191 4.992 89.4991C4.992 90.2671 4.944 91.2511 4.488 91.5871C4.224 91.7791 3.912 91.8511 3.6 91.8511C3.024 91.8511 2.424 91.5871 2.088 91.2991L1.608 90.7951L0.528 91.7551L1.032 92.3071C1.632 92.9551 2.592 93.2431 3.552 93.2671ZM21.2447 90.0271L21.0287 89.5471L18.5327 83.7391H16.9727L12.8927 93.1711H14.4527L15.4127 90.9871H20.0687L21.0287 93.1711H22.5887L21.2447 90.0271ZM16.0367 89.5471L17.7647 85.5391L19.4687 89.5471H16.0367ZM36.1513 83.7151L33.3193 87.9151L30.4633 83.7151H28.9993V93.2191H30.4393V86.2591L32.4313 89.2111L32.5513 89.3551L32.6233 89.4991L33.0553 90.1231L33.3193 90.5071L33.5593 90.1231L33.9913 89.4991L34.0633 89.3551L34.1833 89.2111L36.1993 86.2591V93.2191H37.6393V84.1231V83.7151H36.1513ZM51.6761 85.1071V83.6671H46.5161H45.0761V85.1071V87.5071V88.9471V91.7791V93.2191H51.6761V91.7791H46.5161V88.9471H51.1001V87.5071H46.5161V85.1071H51.6761ZM62.3104 93.3631C62.6464 93.3631 63.3184 93.3151 64.0384 93.0031C64.8064 92.6671 65.3344 92.0911 65.6224 91.3471C65.6944 91.0591 65.7664 90.7951 65.7664 90.5071C65.7664 90.1471 65.6944 89.8351 65.5504 89.5231C65.1424 88.7311 64.3024 88.1311 62.9824 87.6991C62.6704 87.6031 62.3824 87.5071 62.0944 87.4351C60.7984 87.0751 60.1744 86.8591 60.1744 86.0431C60.1744 85.8751 60.2704 85.6831 60.3904 85.5391C60.6784 85.1791 61.2784 84.9631 62.0464 84.9151C62.9344 84.9151 63.7264 85.2031 64.1104 85.6111L64.6384 86.0671L65.5744 84.9871L65.0464 84.5311C64.6864 84.2191 64.2784 83.9551 63.8464 83.7871C63.2464 83.5471 62.6224 83.4751 61.9504 83.4751C60.4624 83.5711 59.6704 84.1711 59.2864 84.6271C58.9264 85.0351 58.7344 85.5391 58.7344 86.0671C58.7344 86.9551 59.1904 87.6991 59.9344 88.1551C60.4384 88.4911 61.0624 88.6351 61.7344 88.8271C61.9984 88.8991 62.2624 88.9951 62.5264 89.0671C63.4384 89.3551 64.0384 89.7391 64.2544 90.1471C64.2784 90.2191 64.3264 90.3391 64.3264 90.4831C64.3264 90.5791 64.3024 90.7231 64.2544 90.8671C64.1104 91.2271 63.8464 91.5151 63.4384 91.6831C62.9584 91.8991 62.4784 91.9231 62.3104 91.9231C61.3504 91.9231 60.5104 91.5871 59.7904 90.9391L59.2384 90.4591L58.2784 91.5391L58.8304 92.0191C59.8144 92.9071 60.9904 93.3631 62.3104 93.3631ZM86.3724 88.5391C86.3004 88.4431 86.2284 88.3711 86.1564 88.2991C86.6604 87.8431 86.9724 87.1471 86.9724 86.3791C86.9724 85.0351 86.0364 83.8351 84.7164 83.7631L80.5644 83.7391V93.2191L84.8124 93.1951C86.1084 93.0271 87.1164 91.8511 87.1164 90.4591C87.1164 89.7391 86.8524 89.0671 86.3724 88.5391ZM82.0044 85.1791H84.3564C85.0044 85.1791 85.5324 85.7071 85.5324 86.3791C85.5324 87.0511 85.0044 87.6751 84.3564 87.6751L82.0044 87.6511V85.1791ZM84.5004 91.7791H82.0044V89.0911H84.5004C85.1724 89.0911 85.6764 89.7391 85.6764 90.4591C85.6764 91.1791 85.1724 91.7791 84.5004 91.7791ZM84.6684 93.2191H84.2604H84.6684ZM103.308 91.7791V83.6671H101.868V93.2191H102.108H107.628V91.7791H103.308ZM121.338 85.1071V83.6671H116.178H114.738V85.1071V87.5071V88.9471V91.7791V93.2191H121.338V91.7791H116.178V88.9471H120.762V87.5071H116.178V85.1071H121.338ZM135.284 85.1071V83.6671H130.124H128.684V85.1071V87.5071V88.9471V91.7791V93.2191H135.284V91.7791H130.124V88.9471H134.708V87.5071H130.124V85.1071H135.284ZM144.623 88.8751C144.527 88.7311 144.335 88.6351 144.167 88.6351C143.951 88.6111 143.615 88.6111 143.447 88.7311C143.255 88.8511 143.183 89.0671 143.183 89.2831C143.159 89.4991 143.207 89.7151 143.231 89.9311C143.327 90.6271 143.279 91.3471 143.063 92.0191C143.231 92.0911 143.423 92.0191 143.567 91.9471C143.711 91.8271 143.831 91.6831 143.927 91.5151C144.335 90.8671 144.599 90.1231 144.671 89.3551C144.695 89.2111 144.695 89.0191 144.623 88.8751ZM167.673 87.7471C167.433 85.2031 165.369 83.6671 162.705 83.5951H160.257V93.2191H161.841C165.273 93.2191 167.529 91.5151 167.673 88.4911C167.673 88.2751 167.673 87.7471 167.673 87.7471ZM166.233 88.5871C166.233 90.6031 164.313 91.7791 161.841 91.7791H161.697V85.0351L162.225 85.0111C165.417 85.0111 166.233 86.9071 166.233 88.4911V88.5871ZM181.807 87.7471C181.567 85.2031 179.503 83.6671 176.839 83.5951H174.391V93.2191H175.975C179.407 93.2191 181.663 91.5151 181.807 88.4911C181.807 88.2751 181.807 87.7471 181.807 87.7471ZM180.367 88.5871C180.367 90.6031 178.447 91.7791 175.975 91.7791H175.831V85.0351L176.359 85.0111C179.551 85.0111 180.367 86.9071 180.367 88.4911V88.5871ZM191.836 93.3631C192.172 93.3631 192.844 93.3151 193.564 93.0031C194.332 92.6671 194.86 92.0911 195.148 91.3471C195.22 91.0591 195.292 90.7951 195.292 90.5071C195.292 90.1471 195.22 89.8351 195.076 89.5231C194.668 88.7311 193.828 88.1311 192.508 87.6991C192.196 87.6031 191.908 87.5071 191.62 87.4351C190.324 87.0751 189.7 86.8591 189.7 86.0431C189.7 85.8751 189.796 85.6831 189.916 85.5391C190.204 85.1791 190.804 84.9631 191.572 84.9151C192.46 84.9151 193.252 85.2031 193.636 85.6111L194.164 86.0671L195.1 84.9871L194.572 84.5311C194.212 84.2191 193.804 83.9551 193.372 83.7871C192.772 83.5471 192.148 83.4751 191.476 83.4751C189.988 83.5711 189.196 84.1711 188.812 84.6271C188.452 85.0351 188.26 85.5391 188.26 86.0671C188.26 86.9551 188.716 87.6991 189.46 88.1551C189.964 88.4911 190.588 88.6351 191.26 88.8271C191.524 88.8991 191.788 88.9951 192.052 89.0671C192.964 89.3551 193.564 89.7391 193.78 90.1471C193.804 90.2191 193.852 90.3391 193.852 90.4831C193.852 90.5791 193.828 90.7231 193.78 90.8671C193.636 91.2271 193.372 91.5151 192.964 91.6831C192.484 91.8991 192.004 91.9231 191.836 91.9231C190.876 91.9231 190.036 91.5871 189.316 90.9391L188.764 90.4591L187.804 91.5391L188.356 92.0191C189.34 92.9071 190.516 93.3631 191.836 93.3631Z" fill="#4294C2"/>
<rect y="0.0667114" width="72" height="72.12" fill="#1F3B53"/>
<rect x="5" y="5.07336" width="62" height="62.1067" fill="#1F3B53" stroke="white" stroke-width="2"/>
<g clip-path="url(#clip0_8_11)">
<path d="M52.9057 19.1899C47.5123 13.6923 40.9993 19.2565 40.9993 19.2565C36.0258 23.1325 30.7938 34.1165 15.6148 41.702" stroke="white" stroke-width="2" stroke-linecap="round" stroke-linejoin="round"/>
<path d="M34.2602 18.4235C30.7292 16.4689 27.6503 16.9575 25.8525 17.6017C21.9878 18.99 19.1565 23.8766 20.879 30.0183C22.1708 34.6274 26.4446 55.096 30.3955 55.4847C34.9384 55.9289 30.4601 41.0467 34.7554 41.1689C35.4875 41.1911 35.9288 41.4799 36.4133 42.5572C37.5221 45.056 38.2003 51.5642 38.3187 52.8303C38.4371 54.0964 38.6309 55.3514 40.5902 55.4958C43.8198 55.7401 44.5626 48.4878 47.523 41.702C52.432 30.507 58.3852 32.3506 58.3852 32.3506" stroke="white" stroke-width="2" stroke-linecap="round" stroke-linejoin="round"/>
</g>
<defs>
<clipPath id="clip0_8_11">
<rect width="46" height="42.07" fill="white" transform="translate(14 15.0917)"/>
</clipPath>
</defs>
</svg>
