<svg xmlns="http://www.w3.org/2000/svg" xmlns:svg="http://www.w3.org/2000/svg" id="svg1976" width="449.1" height="497.883" version="1.1" viewBox="0 0 118.824 131.731"><g id="layer1" transform="translate(-45.587811,-82.634279)"><g id="g839" transform="translate(147.85979,-0.20123541)"><path d="m -66.720796,213.24404 c -0.956028,0 -1.732139,-0.77611 -1.732139,-1.73213 v -36.22323 c 0,-5.05178 -4.109862,-9.16164 -9.158112,-9.16164 -5.051778,0 -9.158112,4.10986 -9.158112,9.16164 v 36.22323 c 0,0.95602 -0.776111,1.73213 -1.732139,1.73213 -0.956028,0 -1.732139,-0.77611 -1.732139,-1.73213 v -36.22323 c 0,-6.9603 5.662084,-12.62239 12.62239,-12.62239 6.960306,0 12.62239,5.66209 12.62239,12.62239 v 36.22323 c 0,0.95602 -0.776112,1.73213 -1.732139,1.73213" style="fill:#231f20;fill-opacity:1;fill-rule:nonzero;stroke:none;stroke-width:.0352778" id="path50"/><path d="m -7.2565704,213.24404 c -0.9560279,0 -1.732139,-0.77611 -1.732139,-1.73213 v -26.52184 c 0,-5.05178 -4.1098616,-9.15811 -9.1581116,-9.15811 -5.051778,0 -9.16164,4.10633 -9.16164,9.15811 v 26.52184 c 0,0.95602 -0.772583,1.73213 -1.728611,1.73213 -0.956028,0 -1.732139,-0.77611 -1.732139,-1.73213 v -26.52184 c 0,-6.96031 5.662084,-12.62239 12.62239,-12.62239 6.956778,0 12.6188618,5.66208 12.6188618,12.62239 v 26.52184 c 0,0.95602 -0.7725834,1.73213 -1.7286112,1.73213" style="fill:#231f20;fill-opacity:1;fill-rule:nonzero;stroke:none;stroke-width:.0352778" id="path52"/><path d="m -83.234325,167.69338 c -0.04586,0 -0.09172,-0.004 -0.137584,-0.007 -0.956027,-0.0776 -1.665111,-0.91017 -1.5875,-1.86267 l 2.314223,-28.90661 c 0.03175,-1.88031 -0.6985,-3.72886 -2.007306,-5.08 l -14.167556,-14.59795 c -0.102306,-0.10583 -0.186973,-0.21872 -0.261056,-0.34572 -3.242026,-5.6515 -2.187226,-12.60828 2.568222,-16.915694 l 16.958029,-15.370528 c 0.709084,-0.642056 1.806223,-0.589139 2.448278,0.119944 0.642056,0.709083 0.585611,1.802695 -0.123472,2.44475 l -16.958029,15.370528 c -3.488972,3.16089 -4.293306,8.25147 -1.993194,12.446 l 14.012334,14.4392 c 1.964972,2.02494 3.051528,4.8013 2.9845,7.62 -0.0035,0.0317 -0.0035,0.0635 -0.0071,0.0952 l -2.31775,28.956 c -0.07408,0.90664 -0.829028,1.59456 -1.725083,1.59456" style="fill:#231f20;fill-opacity:1;fill-rule:nonzero;stroke:none;stroke-width:.0352778" id="path54"/><path d="m -71.20813,168.21196 c -0.934861,0 -1.707445,-0.74436 -1.732139,-1.68628 -0.03528,-1.32997 -0.85725,-32.55081 -0.867833,-33.05528 -0.04233,-2.413 -1.3335,-4.68136 -2.585862,-5.67267 l -14.911917,-11.81452 c -0.09172,-0.0706 -0.176389,-0.1517 -0.250473,-0.24342 -3.704166,-4.40972 -3.859389,-10.63625 -0.381,-15.14122 l 12.17789,-15.765645 c 0.582083,-0.758472 1.668639,-0.896055 2.427111,-0.313972 0.754945,0.585611 0.896056,1.672167 0.310445,2.430639 L -89.19627,102.71523 c -2.44475,3.16089 -2.360084,7.52475 0.183444,10.668 l 14.770807,11.69811 c 2.271889,1.8027 3.838222,5.14703 3.898195,8.32909 0.0071,0.52917 0.85725,32.69897 0.867833,33.02353 0.02469,0.95603 -0.73025,1.7533 -1.686278,1.778 -0.01411,0 -0.03175,0 -0.04586,0" style="fill:#231f20;fill-opacity:1;fill-rule:nonzero;stroke:none;stroke-width:.0352778" id="path56"/><path d="m -18.146821,87.623398 c -16.49589,0 -29.915558,13.416142 -29.915558,29.912032 0,16.49589 13.419668,29.91555 29.915558,29.91555 16.492362,0 29.91203,-13.41966 29.91203,-29.91555 0,-16.49589 -13.419668,-29.912032 -29.91203,-29.912032 z m 0,63.288342 c -18.404418,0 -33.376308,-14.97189 -33.376308,-33.37631 0,-18.40442 14.97189,-33.37631 33.376308,-33.37631 18.40088994,0 33.376308,14.97189 33.376308,33.37631 0,18.40442 -14.97541806,33.37631 -33.376308,33.37631" style="fill:#231f20;fill-opacity:1;fill-rule:nonzero;stroke:none;stroke-width:.0352778" id="path58"/><path d="m -1.8061534,111.4747 c -0.6491112,0 -1.2700001,-0.36688 -1.5663334,-0.9913 -2.1907502,-4.62845 -6.484056,-8.00453 -11.4864452,-9.02758 -0.934861,-0.1905 -1.538111,-1.1042 -1.347611,-2.042588 0.1905,-0.934861 1.107722,-1.541639 2.042583,-1.347611 6.0607229,1.23825 11.2641954,5.326949 13.92061224,10.936109 0.40922225,0.86431 0.0423333,1.89442 -0.82197224,2.30364 -0.2398889,0.11289 -0.4938889,0.16933 -0.7408334,0.16933" style="fill:#231f20;fill-opacity:1;fill-rule:nonzero;stroke:none;stroke-width:.0352778" id="path60"/><path d="m -24.232238,136.23265 c -0.194028,0 -0.388056,-0.0318 -0.582084,-0.0988 -4.967111,-1.77447 -9.091083,-5.53861 -11.313584,-10.32933 -0.405694,-0.86783 -0.02822,-1.89442 0.839612,-2.30011 0.867833,-0.40217 1.897944,-0.0247 2.300111,0.84314 1.834444,3.95464 5.23875,7.06261 9.338028,8.52311 0.899584,0.32455 1.368778,1.31233 1.04775,2.21544 -0.250472,0.70556 -0.917222,1.14653 -1.629833,1.14653" style="fill:#231f20;fill-opacity:1;fill-rule:nonzero;stroke:none;stroke-width:.0352778" id="path62"/><path d="m -24.436849,177.41593 c -0.956028,0 -1.732139,-0.77611 -1.732139,-1.73214 v -27.12861 c 0,-0.95603 0.776111,-1.73214 1.732139,-1.73214 0.956028,0 1.732139,0.77611 1.732139,1.73214 v 27.12861 c 0,0.95603 -0.776111,1.73214 -1.732139,1.73214" style="fill:#231f20;fill-opacity:1;fill-rule:nonzero;stroke:none;stroke-width:.0352778" id="path64"/><path d="m -11.458154,177.41593 c -0.956028,0 -1.732139,-0.77611 -1.732139,-1.73214 v -27.12861 c 0,-0.95603 0.776111,-1.73214 1.732139,-1.73214 0.956028,0 1.732139,0.77611 1.732139,1.73214 v 27.12861 c 0,0.95603 -0.776111,1.73214 -1.732139,1.73214" style="fill:#231f20;fill-opacity:1;fill-rule:nonzero;stroke:none;stroke-width:.0352778" id="path66"/></g></g></svg>