<?xml version="1.0" encoding="UTF-8" standalone="no"?>
<!-- Created with Inkscape (http://www.inkscape.org/) -->

<svg
   width="497.82953"
   height="446.59808"
   viewBox="0 0 131.71739 118.16241"
   version="1.1"
   id="svg1702"
   inkscape:version="1.1.2 (0a00cf5339, 2022-02-04)"
   sodipodi:docname="dental-chair.svg"
   xmlns:inkscape="http://www.inkscape.org/namespaces/inkscape"
   xmlns:sodipodi="http://sodipodi.sourceforge.net/DTD/sodipodi-0.dtd"
   xmlns="http://www.w3.org/2000/svg"
   xmlns:svg="http://www.w3.org/2000/svg">
  <sodipodi:namedview
     id="namedview1704"
     pagecolor="#ffffff"
     bordercolor="#666666"
     borderopacity="1.0"
     inkscape:pageshadow="2"
     inkscape:pageopacity="0.0"
     inkscape:pagecheckerboard="0"
     inkscape:document-units="mm"
     showgrid="false"
     inkscape:zoom="0.65744949"
     inkscape:cx="-292.79816"
     inkscape:cy="254.77242"
     inkscape:window-width="1920"
     inkscape:window-height="1023"
     inkscape:window-x="0"
     inkscape:window-y="0"
     inkscape:window-maximized="1"
     inkscape:current-layer="layer1"
     units="px"
     fit-margin-top="5"
     fit-margin-left="5"
     fit-margin-right="5"
     fit-margin-bottom="5" />
  <defs
     id="defs1699" />
  <g
     inkscape:label="Layer 1"
     inkscape:groupmode="layer"
     id="layer1"
     transform="translate(-39.141303,-89.418794)">
    <g
       id="g839"
       transform="translate(4.3902363,20.92685)">
      <path
         d="m 58.31752,98.191793 c -0.694972,0 -1.397,0.243417 -1.961797,0.740834 l -3.113264,2.734033 c -1.234723,1.08302 -1.357489,2.96686 -0.273403,4.20158 l 24.874716,28.33864 v 0 c 1.086555,1.23472 2.970389,1.35467 4.205111,0.27164 l 3.115028,-2.73403 c 1.234722,-1.08303 1.354667,-2.97039 0.271639,-4.20511 L 60.561187,99.204266 C 59.972048,98.533988 59.146548,98.191793 58.31752,98.191793 Z M 80.087438,138.6801 c -1.792111,0 -3.573639,-0.74083 -4.843639,-2.19075 L 50.366967,108.15424 c -2.34315,-2.67053 -2.078214,-6.74864 0.590903,-9.091086 l 3.113617,-2.734027 c 2.669117,-2.342445 6.747228,-2.077862 9.089673,0.592666 l 24.87789,28.335117 c 2.342445,2.67053 2.077861,6.74864 -0.592667,9.09108 l -3.1115,2.73403 c -1.220611,1.06892 -2.737556,1.59808 -4.247445,1.59808"
         style="fill:#231f20;fill-opacity:1;fill-rule:nonzero;stroke:none;stroke-width:0.0352778"
         id="path376" />
      <path
         d="m 43.344925,88.853765 c 0.838552,2.194278 2.416528,3.256139 3.092803,2.998611 l 6.036028,-2.303639 c 0.676981,-0.261055 1.144059,-2.106083 0.305859,-4.300361 L 49.4187,76.308986 c -0.835025,-2.187222 -2.415117,-3.252611 -3.091039,-2.995083 l -6.036734,2.307167 c -0.301272,0.112889 -0.554214,0.546805 -0.676275,1.160639 -0.180975,0.903111 -0.04551,2.049639 0.37077,3.139722 z m 2.885722,6.498167 c -2.397478,0 -4.896909,-2.060222 -6.121753,-5.266973 -0.0011,-0.0035 -0.0021,-0.0035 -0.0032,-0.0071 l -3.358092,-8.932334 c -0.649111,-1.696861 -0.837847,-3.4925 -0.528108,-5.044723 0.36195,-1.80975 1.395589,-3.164416 2.836333,-3.71475 l 6.036381,-2.307167 c 2.766484,-1.054805 6.089298,1.139473 7.564262,5.00239 l 3.360914,8.939389 c 1.471084,3.852334 0.458964,7.704667 -2.308225,8.759473 l -6.036381,2.307167 c -0.468489,0.179916 -0.953559,0.264583 -1.442156,0.264583"
         style="fill:#231f20;fill-opacity:1;fill-rule:nonzero;stroke:none;stroke-width:0.0352778"
         id="path378" />
      <path
         d="m 51.47857,102.32988 c -0.639939,0 -1.254831,-0.35631 -1.555751,-0.97014 l -3.641372,-7.425975 c -0.420864,-0.85725 -0.06632,-1.894417 0.791986,-2.31775 0.858309,-0.419805 1.895475,-0.06703 2.316692,0.79375 l 3.641373,7.425973 c 0.421217,0.857252 0.06632,1.894422 -0.791987,2.314222 -0.245533,0.11995 -0.505178,0.17992 -0.760941,0.17992"
         style="fill:#231f20;fill-opacity:1;fill-rule:nonzero;stroke:none;stroke-width:0.0352778"
         id="path380" />
      <path
         d="m 157.99489,153.94127 c -2.23661,0 -4.953,-0.81492 -8.08919,-2.89278 -6.67103,-4.4203 -13.32443,-3.24908 -21.74523,-1.76741 -3.85586,0.67733 -7.84578,1.37936 -12.31195,1.64041 -0.97366,0.0565 -1.98966,0.0882 -3.04094,0.0882 -9.45092,0 -21.727585,-2.6035 -31.693558,-13.49375 -0.645583,-0.70556 -0.596195,-1.8027 0.109361,-2.44828 0.705556,-0.64558 1.802695,-0.5962 2.448278,0.10936 10.152945,11.10192 22.994059,12.80936 31.979309,12.28725 4.26508,-0.24694 8.15269,-0.93133 11.90978,-1.59456 8.81944,-1.55222 16.43239,-2.88925 24.257,2.29306 4.78367,3.16795 7.86695,2.63172 9.16164,1.07245 0.93486,-1.12889 0.96308,-2.73756 0.06,-3.66537 -1.06891,-1.09361 -2.08491,-2.14841 -3.05858,-3.15383 -7.38011,-7.64117 -11.83217,-12.25197 -18.39384,-13.26797 -2.23661,-0.34925 -5.22111,-0.37395 -10.65742,-0.0988 -0.9525,0.0459 -1.76741,-0.68792 -1.8168,-1.64395 -0.0494,-0.9525 0.68439,-1.76741 1.64042,-1.8168 5.6903,-0.28575 8.87588,-0.25047 11.36297,0.13758 7.71172,1.19592 12.74234,6.40292 20.35528,14.28398 0.96661,1.00188 1.97908,2.04963 3.048,3.14325 2.1202,2.18016 2.17311,5.82083 0.12347,8.2938 -1.19591,1.44286 -3.1115,2.49061 -5.64797,2.49414"
         style="fill:#231f20;fill-opacity:1;fill-rule:nonzero;stroke:none;stroke-width:0.0352778"
         id="path382" />
      <path
         d="m 87.7533,132.42535 c -0.892528,0 -1.647472,-0.68439 -1.721556,-1.5875 -0.08114,-0.95602 0.627945,-1.79211 1.580445,-1.86972 2.719917,-0.22578 6.554611,-0.58208 10.992556,-0.99483 5.020025,-0.4692 10.710335,-1.00189 15.800915,-1.43228 0.9525,-0.0776 1.78859,0.62794 1.86972,1.58044 0.0811,0.9525 -0.62441,1.79212 -1.57691,1.87325 -5.07647,0.42687 -10.7562,0.95603 -15.769169,1.42523 -4.452056,0.41275 -8.293806,0.77258 -11.031362,0.99836 -0.04939,0.004 -0.09525,0.007 -0.144639,0.007"
         style="fill:#231f20;fill-opacity:1;fill-rule:nonzero;stroke:none;stroke-width:0.0352778"
         id="path384" />
      <path
         d="m 81.876022,181.86716 h 75.441538 c -0.10231,-5.08 -3.38667,-9.4615 -7.12259,-9.4615 H 89.411356 c -3.887612,0 -7.429501,4.48028 -7.535334,9.4615 z m 75.956588,3.46428 H 81.360966 c -1.626305,0 -2.95275,-1.45344 -2.95275,-3.23497 0,-7.00617 5.1435,-13.15156 11.00314,-13.15156 h 60.783614 c 5.7397,0 10.59039,6.02192 10.59039,13.15156 0,1.78153 -1.32644,3.23497 -2.95275,3.23497"
         style="fill:#231f20;fill-opacity:1;fill-rule:nonzero;stroke:none;stroke-width:0.0352778"
         id="path386" />
      <path
         d="m 91.415134,172.40566 c -0.151695,0 -0.306917,-0.0176 -0.458612,-0.06 -0.92075,-0.254 -1.464027,-1.2065 -1.213555,-2.12725 l 6.547556,-23.9007 c 0.254,-0.92075 1.202972,-1.46403 2.12725,-1.21003 0.92075,0.25048 1.464028,1.20298 1.213556,2.12726 l -6.547556,23.89716 c -0.211667,0.76906 -0.906639,1.27353 -1.668639,1.27353"
         style="fill:#231f20;fill-opacity:1;fill-rule:nonzero;stroke:none;stroke-width:0.0352778"
         id="path388" />
      <path
         d="m 147.49622,172.40566 c -0.72319,0 -1.397,-0.45508 -1.64041,-1.17828 l -8.22679,-24.45808 c -0.30338,-0.90311 0.18345,-1.88736 1.09009,-2.19075 0.90664,-0.30692 1.88736,0.18344 2.19075,1.09008 l 8.22678,24.45456 c 0.30692,0.90664 -0.18344,1.88736 -1.08656,2.19428 -0.18344,0.06 -0.37041,0.0882 -0.55386,0.0882"
         style="fill:#231f20;fill-opacity:1;fill-rule:nonzero;stroke:none;stroke-width:0.0352778"
         id="path390" />
      <path
         d="m 94.068023,113.62582 c 0,0 0,0 0,0 z m 8.276167,1.3335 c 2.22603,1.45698 4.71664,3.27378 7.19667,5.45748 6.52286,5.73969 10.44222,11.79689 11.64872,17.99872 1.04422,5.36575 3.175,7.90575 6.32531,7.54592 0.0141,0 1.27352,-0.17992 2.2225,-1.61573 0.91016,-1.3723 1.66511,-4.1275 0.0917,-9.4615 -2.4377,-8.27616 -4.57553,-15.5328 -27.48492,-19.92489 z m 24.57803,34.49815 c -3.02683,0 -7.42597,-1.62278 -9.12989,-10.37873 -2.35303,-12.07911 -16.95803,-21.74522 -24.348724,-25.16717 -0.885472,-0.40922 -1.329972,-1.38641 -1.054806,-2.32127 0.271639,-0.93839 1.17475,-1.52048 2.141362,-1.39348 0,0 0,0 0,0 14.527388,1.96145 23.974778,4.87539 29.732108,9.17223 5.45748,4.06752 7.25312,8.98877 8.89,14.53444 1.56281,5.31284 1.38642,9.46856 -0.52916,12.35781 -1.37936,2.08139 -3.40078,2.99155 -4.71664,3.13972 -0.30692,0.0353 -0.63853,0.0564 -0.98425,0.0564"
         style="fill:#231f20;fill-opacity:1;fill-rule:nonzero;stroke:none;stroke-width:0.0352778"
         id="path392" />
    </g>
  </g>
</svg>
