<svg xmlns="http://www.w3.org/2000/svg" xmlns:svg="http://www.w3.org/2000/svg" id="svg2445" width="409.333" height="497.88" version="1.1" viewBox="0 0 108.303 131.731"><g id="layer1" transform="translate(-50.848607,-82.634623)"><g id="g833" transform="translate(-10.097564,43.46342)"><path d="m 92.629145,43.958398 c -14.830778,0 -26.895779,12.248445 -26.895779,27.305002 0,12.777611 1.834445,19.51214 3.774722,26.638251 0.264584,0.966611 0.525639,1.929695 0.783167,2.910419 0.85725,3.25966 3.795889,5.4998 7.154334,5.46453 l 75.730811,-0.92781 v 0 c 3.25614,-0.0388 6.12069,-2.27189 6.96736,-5.42925 0.17992,-0.677333 0.36336,-1.344083 0.54328,-2.017889 1.9438,-7.126111 3.77825,-13.857112 3.77825,-26.638251 0,-15.056557 -12.06853,-27.305002 -26.89931,-27.305002 -3.08328,0 -6.10658,0.515055 -8.98878,1.534583 -4.38855,1.55575 -8.91822,2.363612 -13.46553,2.398889 -0.0106,0 -0.0176,0 -0.0282,0 -4.5473,-0.03528 -9.07697,-0.843139 -13.46553,-2.398889 -2.878663,-1.019528 -5.901969,-1.534583 -8.988775,-1.534583 z M 77.353867,109.74087 c -4.889501,0 -9.158112,-3.29494 -10.410473,-8.04686 -0.254,-0.97014 -0.515056,-1.926164 -0.776111,-2.882192 -1.915584,-7.030862 -3.898195,-14.30514 -3.898195,-27.548418 0,-8.212668 3.136195,-15.931446 8.830028,-21.731113 5.722056,-5.827889 13.366751,-9.038167 21.530029,-9.038167 3.481917,0 6.893279,0.585611 10.145895,1.735667 4.02166,1.425222 8.1668,2.166055 12.32252,2.201333 4.15925,-0.03528 8.30439,-0.776111 12.32253,-2.201333 3.25261,-1.150056 6.6675,-1.735667 10.14589,-1.735667 8.16328,0 15.80797,3.210278 21.53003,9.038167 5.69383,5.799667 8.83003,13.518445 8.83003,21.731113 0,13.243278 -1.98261,20.517556 -3.8982,27.548418 -0.17991,0.66675 -0.36336,1.333502 -0.53975,2.003782 -1.24883,4.64961 -5.46805,7.9375 -10.26936,7.99747 l -75.730808,0.92428 c -0.04586,0.004 -0.09172,0.004 -0.134055,0.004" style="fill:#231f20;fill-opacity:1;fill-rule:nonzero;stroke:none;stroke-width:.0352778" id="path32"/><path d="m 115.09756,169.57904 c -3.98991,0 -7.45066,-2.42358 -8.81239,-6.17713 L 86.321478,108.47087 c -0.324555,-0.89958 0.137584,-1.89088 1.037167,-2.21897 0.899584,-0.32808 1.890889,0.13759 2.218973,1.03717 l 19.960172,54.93103 c 1.04422,2.87161 3.556,3.89467 5.55977,3.89467 2.00378,0 4.51556,-1.02306 5.55978,-3.89467 l 19.9637,-54.93103 c 0.32455,-0.89958 1.31939,-1.36525 2.21897,-1.03717 0.89606,0.32809 1.36172,1.31939 1.03364,2.21897 l -19.9637,54.93104 c -1.36172,3.75355 -4.81894,6.17713 -8.81239,6.17713" style="fill:#231f20;fill-opacity:1;fill-rule:nonzero;stroke:none;stroke-width:.0352778" id="path34"/><path d="m 131.43118,155.72546 c -0.0706,0 -0.13759,-0.007 -0.20814,-0.0141 L 98.788646,151.8061 c -0.948972,-0.11289 -1.626306,-0.9772 -1.509889,-1.92617 0.112889,-0.94897 0.973667,-1.6263 1.922639,-1.50989 l 32.434394,3.90525 c 0.94897,0.11289 1.6263,0.97367 1.51341,1.92264 -0.10583,0.88195 -0.85372,1.52753 -1.71802,1.52753" style="fill:#231f20;fill-opacity:1;fill-rule:nonzero;stroke:none;stroke-width:.0352778" id="path36"/><path d="m 136.13723,143.32179 c -0.0776,0 -0.15875,-0.007 -0.23989,-0.0176 L 93.377034,137.4551 c -0.948972,-0.13053 -1.608666,-1.00189 -1.478139,-1.95086 0.130528,-0.94545 0.998362,-1.60867 1.950862,-1.47814 l 42.520303,5.84905 c 0.94898,0.13053 1.60867,1.00542 1.47814,1.95087 -0.11641,0.86783 -0.86077,1.49577 -1.71097,1.49577" style="fill:#231f20;fill-opacity:1;fill-rule:nonzero;stroke:none;stroke-width:.0352778" id="path38"/><path d="m 140.60693,130.60063 c -0.0741,0 -0.1517,-0.007 -0.23284,-0.0176 l -52.655611,-7.08378 c -0.948973,-0.127 -1.612195,-0.99836 -1.485195,-1.94381 0.127,-0.94897 0.994833,-1.61219 1.947333,-1.48519 l 52.655613,7.08025 c 0.94897,0.13053 1.6122,1.00189 1.4852,1.94733 -0.11642,0.87136 -0.86078,1.50284 -1.7145,1.50284" style="fill:#231f20;fill-opacity:1;fill-rule:nonzero;stroke:none;stroke-width:.0352778" id="path40"/><path d="m 144.23701,117.98882 c -0.0741,0 -0.14464,-0.004 -0.21872,-0.0141 L 88.230006,110.9615 c -0.948972,-0.11995 -1.622778,-0.98778 -1.502833,-1.93323 0.119944,-0.94897 0.98425,-1.62277 1.933222,-1.50283 l 55.788285,7.01322 c 0.94897,0.11995 1.62277,0.98778 1.50283,1.93322 -0.10936,0.87842 -0.85372,1.51695 -1.7145,1.51695" style="fill:#231f20;fill-opacity:1;fill-rule:nonzero;stroke:none;stroke-width:.0352778" id="path42"/></g></g></svg>