<svg xmlns="http://www.w3.org/2000/svg" xmlns:svg="http://www.w3.org/2000/svg" id="svg2218" width="467.989" height="497.893" version="1.1" viewBox="0 0 123.822 131.734"><g id="layer1" transform="translate(-43.088904,-82.632855)"><g id="g833" transform="translate(40.207312,20.524389)"><path d="m 47.529171,92.980051 c -11.176,0 -20.267084,9.232199 -20.267084,20.581059 0,9.76489 1.404055,14.91544 2.885722,20.36586 1.273528,4.67078 2.589389,9.50031 2.896306,17.25789 0.677333,17.04622 4.744861,29.97906 8.47725,35.23192 1.531056,2.15547 4.004028,3.15031 5.884334,2.36714 2.670528,-1.11125 4.847167,-6.19831 2.949223,-17.13089 -2.416528,-13.91003 -1.524001,-22.79298 2.818694,-27.95059 2.652889,-3.15383 6.561667,-4.75544 11.620501,-4.75544 4.663722,0 8.378473,1.60161 11.031362,4.75544 5.658556,6.72748 4.977694,18.91242 3.407833,27.95059 -1.901472,10.93258 0.275167,16.01964 2.949223,17.13089 1.876778,0.78317 4.34975,-0.21167 5.880806,-2.36714 3.732389,-5.25286 7.799917,-18.1857 8.47725,-35.23192 0.306917,-7.75758 1.622778,-12.58711 2.896306,-17.25789 1.485193,-5.45042 2.885723,-10.60097 2.885723,-20.36586 0,-11.34886 -9.091085,-20.581059 -20.267085,-20.581059 -2.324806,0 -4.603751,0.391584 -6.769806,1.160639 -3.414889,1.210028 -6.93914,1.837973 -10.481029,1.866195 -0.0071,0 -0.01764,0 -0.02469,0 -3.541889,-0.02822 -7.06614,-0.656167 -10.477501,-1.866195 -2.169583,-0.769055 -4.448528,-1.160639 -6.773334,-1.160639 z m -1.513416,99.539789 c -2.695223,0 -5.457473,-1.48167 -7.316612,-4.09575 -4.917723,-6.92151 -8.494889,-21.48417 -9.112251,-37.10165 -0.292805,-7.366 -1.499305,-11.79689 -2.779889,-16.4853 -1.478139,-5.43278 -3.005666,-11.04548 -3.005666,-21.27603 0,-6.41703 2.448277,-12.446 6.896806,-16.979197 4.473222,-4.554362 10.449278,-7.062612 16.831028,-7.062612 2.719917,0 5.386917,0.455083 7.926918,1.358195 3.048,1.0795 6.187722,1.640416 9.338028,1.665111 3.146778,-0.0247 6.2865,-0.585611 9.3345,-1.665111 2.540001,-0.903112 5.207001,-1.358195 7.926918,-1.358195 6.38175,0 12.357806,2.50825 16.831028,7.062612 4.448527,4.533197 6.900337,10.562167 6.900337,16.979197 0,10.23055 -1.53106,15.84325 -3.0092,21.27603 -1.28058,4.68841 -2.48708,9.1193 -2.77636,16.4853 -0.620888,15.61748 -4.198054,30.18014 -9.115777,37.10165 -2.497667,3.51366 -6.625167,4.97769 -10.036528,3.556 -1.693334,-0.70556 -3.947584,-2.43417 -5.087056,-6.67809 -0.973667,-3.6195 -0.9525,-8.41022 0.05997,-14.24164 2.039056,-11.75103 1.100667,-20.67631 -2.645834,-25.12836 -1.993194,-2.37067 -4.734278,-3.52072 -8.382,-3.52072 -4.046361,0 -6.977945,1.15005 -8.97114,3.52072 -3.584222,4.25803 -4.2545,12.47775 -2.060222,25.12836 1.016,5.83142 1.033639,10.62214 0.0635,14.24164 -1.143,4.24392 -3.39725,5.97253 -5.090584,6.67809 -0.871361,0.36336 -1.792111,0.53975 -2.719916,0.53975" style="fill:#231f20;fill-opacity:1;fill-rule:nonzero;stroke:none;stroke-width:.0352778" id="path302"/><path d="m 64.794117,80.022523 c -0.956028,0 -1.732139,-0.776111 -1.732139,-1.732139 V 65.163522 c 0,-0.956028 0.776111,-1.732139 1.732139,-1.732139 0.956028,0 1.728611,0.776111 1.728611,1.732139 v 13.126862 c 0,0.956028 -0.772583,1.732139 -1.728611,1.732139" style="fill:#231f20;fill-opacity:1;fill-rule:nonzero;stroke:none;stroke-width:.0352778" id="path304"/><path d="m 36.40256,80.392939 c -0.631473,0 -1.234723,-0.342194 -1.541639,-0.938389 l -3.030362,-5.887861 c -0.437444,-0.850195 -0.102305,-1.894417 0.747889,-2.331861 0.850195,-0.437445 1.894417,-0.102306 2.331861,0.747889 l 3.026834,5.887861 c 0.437444,0.850195 0.105833,1.894417 -0.744361,2.331861 -0.254,0.130528 -0.525639,0.1905 -0.790222,0.1905" style="fill:#231f20;fill-opacity:1;fill-rule:nonzero;stroke:none;stroke-width:.0352778" id="path306"/><path d="m 16.202503,96.878246 c -0.377473,0 -0.758473,-0.123472 -1.075973,-0.377472 L 4.8571687,88.323384 C 4.1092797,87.72719 3.9858075,86.637106 4.582002,85.889218 5.1746687,85.141329 6.2647521,85.017856 7.012641,85.614051 l 10.269362,8.177389 c 0.747889,0.596195 0.871361,1.686278 0.275166,2.434167 -0.342194,0.426861 -0.846666,0.652639 -1.354666,0.652639" style="fill:#231f20;fill-opacity:1;fill-rule:nonzero;stroke:none;stroke-width:.0352778" id="path308"/><path d="m 93.185674,80.392939 c -0.268111,0 -0.53975,-0.05997 -0.79375,-0.1905 -0.846667,-0.437444 -1.181805,-1.481666 -0.744361,-2.331861 l 3.030361,-5.887861 c 0.437445,-0.850195 1.478139,-1.185334 2.331862,-0.747889 0.850194,0.437444 1.181805,1.481666 0.744361,2.331861 l -3.030362,5.887861 c -0.306916,0.596195 -0.910166,0.938389 -1.538111,0.938389" style="fill:#231f20;fill-opacity:1;fill-rule:nonzero;stroke:none;stroke-width:.0352778" id="path310"/><path d="m 113.3822,96.878246 c -0.508,0 -1.01247,-0.22225 -1.35466,-0.652639 -0.5962,-0.747889 -0.47273,-1.837972 0.27516,-2.434167 l 10.26936,-8.177389 c 0.74789,-0.596195 1.83798,-0.472722 2.43417,0.275167 0.59267,0.747888 0.4692,1.837972 -0.27869,2.434166 l -10.26936,8.17739 c -0.3175,0.254 -0.6985,0.377472 -1.07598,0.377472" style="fill:#231f20;fill-opacity:1;fill-rule:nonzero;stroke:none;stroke-width:.0352778" id="path312"/></g></g></svg>