<?xml version="1.0" encoding="UTF-8" standalone="no"?>
<!-- Created with Inkscape (http://www.inkscape.org/) -->

<svg
   width="497.87631"
   height="477.02621"
   viewBox="0 0 131.72977 126.21319"
   version="1.1"
   id="svg2912"
   inkscape:version="1.1.2 (0a00cf5339, 2022-02-04)"
   sodipodi:docname="tooth-checkup.svg"
   xmlns:inkscape="http://www.inkscape.org/namespaces/inkscape"
   xmlns:sodipodi="http://sodipodi.sourceforge.net/DTD/sodipodi-0.dtd"
   xmlns="http://www.w3.org/2000/svg"
   xmlns:svg="http://www.w3.org/2000/svg">
  <sodipodi:namedview
     id="namedview2914"
     pagecolor="#ffffff"
     bordercolor="#666666"
     borderopacity="1.0"
     inkscape:pageshadow="2"
     inkscape:pageopacity="0.0"
     inkscape:pagecheckerboard="true"
     inkscape:document-units="mm"
     showgrid="false"
     inkscape:zoom="0.65744949"
     inkscape:cx="-70.727867"
     inkscape:cy="239.56213"
     inkscape:window-width="1920"
     inkscape:window-height="1023"
     inkscape:window-x="0"
     inkscape:window-y="0"
     inkscape:window-maximized="1"
     inkscape:current-layer="layer1"
     units="px"
     fit-margin-top="5"
     fit-margin-right="5"
     fit-margin-bottom="5"
     fit-margin-left="5" />
  <defs
     id="defs2909" />
  <g
     inkscape:label="Layer 1"
     inkscape:groupmode="layer"
     id="layer1"
     transform="translate(-39.135111,-85.393408)">
    <g
       id="g839"
       transform="translate(30.951223,38.634146)">
      <path
         d="m 89.821257,97.315716 c -0.01764,0 -0.03528,0 -0.04939,0 -0.956028,-0.02469 -1.710972,-0.821972 -1.68275,-1.778 0.02469,-0.874889 0.03881,-1.785056 0.03881,-2.709334 0,-11.715751 -9.387418,-21.251335 -20.926779,-21.251335 -2.402417,0 -4.755445,0.402167 -6.992056,1.195917 -3.513667,1.245306 -7.136695,1.890889 -10.777362,1.919111 -0.01058,0 -0.01764,0 -0.02822,0 -2.949223,-0.02469 -5.912556,-0.455083 -8.805334,-1.287639 -0.917223,-0.264583 -1.449917,-1.220611 -1.185334,-2.141361 0.264584,-0.917222 1.224139,-1.449917 2.141362,-1.185333 2.585861,0.740833 5.231694,1.128889 7.863417,1.153583 3.249083,-0.02822 6.491111,-0.606778 9.634361,-1.721555 2.610556,-0.924278 5.35164,-1.393473 8.149168,-1.393473 6.558139,0 12.7,2.578806 17.296695,7.260167 4.572,4.656667 7.090834,10.854973 7.090834,17.451918 0,0.956028 -0.01058,1.901473 -0.03881,2.808111 -0.02469,0.938389 -0.797278,1.679223 -1.728611,1.679223"
         style="fill:#231f20;fill-opacity:1;fill-rule:nonzero;stroke:none;stroke-width:0.0352778"
         id="path88" />
      <path
         d="m 66.809561,171.64953 c -0.899583,0 -1.788583,-0.16934 -2.631722,-0.52212 -2.910417,-1.21355 -7.408334,-5.4363 -4.861278,-20.11186 1.950861,-11.23244 1.058333,-19.75555 -2.515306,-24.003 -1.894417,-2.25072 -4.501445,-3.34433 -7.96925,-3.34433 -3.848806,0 -6.642806,1.09361 -8.533695,3.34433 -3.41489,4.06047 -4.053417,11.90978 -1.954389,24.003 2.550583,14.67556 -1.950862,18.89831 -4.857751,20.11186 -3.298472,1.37584 -7.286625,-0.0388 -9.69892,-3.43252 -4.716992,-6.63928 -8.147756,-20.5987 -8.740423,-35.56353 -0.279047,-7.04145 -1.433689,-11.28184 -2.656416,-15.76917 -1.417462,-5.20347 -2.8836062,-10.58333 -2.8836062,-20.38703 0,-6.166556 2.3533812,-11.959167 6.6272842,-16.312445 4.295775,-4.374445 10.037234,-6.783917 16.166748,-6.783917 2.614083,0 5.17525,0.437444 7.616473,1.30175 0.899583,0.321027 1.372305,1.308805 1.054805,2.211916 -0.321028,0.899584 -1.312333,1.372306 -2.211917,1.051278 -2.067278,-0.73025 -4.240389,-1.104194 -6.459361,-1.104194 -10.659887,0 -19.331871,8.808861 -19.331871,19.635612 0,9.33803 1.341967,14.26281 2.76225,19.47686 1.219553,4.47675 2.480734,9.1052 2.775303,16.54175 0.645584,16.30892 4.534959,28.67378 8.103306,33.69734 1.445684,2.032 3.775428,2.97744 5.542845,2.24014 2.532945,-1.05481 4.589639,-5.89845 2.779889,-16.32303 -2.31775,-13.34206 -1.453444,-21.86517 2.716389,-26.82522 2.554112,-3.03742 6.318251,-4.57553 11.183057,-4.57553 4.490861,0 8.0645,1.53811 10.618611,4.57553 5.436306,6.46641 4.783667,18.15394 3.277306,26.82522 -1.80975,10.42458 0.250472,15.26822 2.779889,16.32303 1.767417,0.73378 4.099278,-0.20814 5.545667,-2.24014 3.566584,-5.02356 7.457723,-17.38842 8.103306,-33.69734 0.292806,-7.43655 1.55575,-12.065 2.772834,-16.54175 0.705555,-2.58586 1.368778,-5.02708 1.883833,-8.03275 0.162278,-0.94191 1.054806,-1.57339 1.996723,-1.41464 0.941916,0.16228 1.576916,1.05834 1.414638,2.00025 -0.53975,3.16795 -1.259416,5.80673 -1.954389,8.35731 -1.220611,4.48733 -2.377722,8.72772 -2.656416,15.76917 -0.592667,14.96483 -4.021667,28.92425 -8.738306,35.56353 -1.795639,2.52589 -4.46264,3.95464 -7.06614,3.95464"
         style="fill:#231f20;fill-opacity:1;fill-rule:nonzero;stroke:none;stroke-width:0.0352778"
         id="path90" />
      <path
         d="m 105.62923,115.66722 c -1.75331,0 -3.51719,0.57855 -4.97417,1.77447 -3.34433,2.74461 -3.834691,7.70114 -1.09008,11.04547 l 23.32567,29.04773 c 0.0953,0.11994 0.23283,0.15875 0.32808,0.1658 0.0953,0.0106 0.23283,0 0.36689,-0.10936 l 11.35945,-9.31686 c 0.13052,-0.10936 0.16933,-0.24342 0.17991,-0.33867 0.0106,-0.0952 -0.004,-0.23636 -0.11289,-0.37041 -0.004,-0.004 -0.007,-0.007 -0.0106,-0.0141 l -23.31156,-29.03008 c -1.54164,-1.88031 -3.79236,-2.85397 -6.06072,-2.85397 z m 17.64595,45.50128 c -0.13406,0 -0.26459,-0.007 -0.39864,-0.0212 -1.05481,-0.10583 -2.00378,-0.61383 -2.67406,-1.43228 L 96.876813,130.67086 c -3.944056,-4.80836 -3.2385,-11.94859 1.583972,-15.90323 4.822475,-3.95464 11.962695,-3.24908 15.917335,1.56986 l 23.31861,29.04067 c 0.66675,0.81845 0.9772,1.84503 0.87489,2.89631 -0.10583,1.0548 -0.61383,2.0073 -1.43228,2.67758 l -11.35591,9.31334 c -0.71614,0.58914 -1.59456,0.90311 -2.50825,0.90311"
         style="fill:#231f20;fill-opacity:1;fill-rule:nonzero;stroke:none;stroke-width:0.0352778"
         id="path92" />
      <path
         d="m 67.980783,51.542796 c -5.824361,0 -11.684,1.93675 -16.531167,5.909028 -11.126612,9.12989 -12.756445,25.608141 -3.626556,36.73828 4.420306,5.390445 10.678584,8.738306 17.617723,9.422696 6.935612,0.68439 13.726585,-1.37231 19.120557,-5.792612 11.126612,-9.129889 12.756445,-25.60814 3.626556,-36.73828 -5.154084,-6.282973 -12.650612,-9.539112 -20.207113,-9.539112 z m 0.07761,55.661284 c -0.980723,0 -1.968501,-0.0459 -2.959806,-0.14464 -7.85989,-0.77611 -14.947196,-4.56495 -19.953112,-10.67153 -10.339918,-12.608278 -8.49489,-31.273752 4.109861,-41.613669 12.604751,-10.33639 31.270224,-8.49489 41.610141,4.113389 v 0 c 10.339923,12.604751 8.49489,31.270224 -4.109861,41.61014 -5.337528,4.37445 -11.885084,6.70631 -18.697223,6.70631"
         style="fill:#231f20;fill-opacity:1;fill-rule:nonzero;stroke:none;stroke-width:0.0352778"
         id="path94" />
      <path
         d="m 59.214255,62.648241 c -0.620889,0 -1.220611,-0.335139 -1.531055,-0.924277 -0.448028,-0.846667 -0.123473,-1.894417 0.723194,-2.338917 5.697361,-3.002139 12.583584,-3.146778 18.422057,-0.388056 0.864305,0.405695 1.234722,1.439334 0.8255,2.303639 -0.409222,0.864306 -1.439334,1.234722 -2.307167,0.8255 -4.85775,-2.296583 -10.586862,-2.176639 -15.324668,0.321028 -0.257527,0.137583 -0.532694,0.201083 -0.807861,0.201083"
         style="fill:#231f20;fill-opacity:1;fill-rule:nonzero;stroke:none;stroke-width:0.0352778"
         id="path96" />
      <path
         d="m 68.026645,98.247049 c -3.090334,0 -6.173612,-0.684389 -8.988779,-2.039056 -0.860778,-0.416277 -1.220611,-1.449916 -0.807861,-2.310694 0.416278,-0.860778 1.453445,-1.224139 2.314222,-0.807861 4.120445,1.986139 8.949973,2.243667 13.250335,0.702028 0.899583,-0.321028 1.890889,0.144638 2.215444,1.044222 0.321028,0.899583 -0.148166,1.890889 -1.04775,2.215444 -2.233083,0.800806 -4.586111,1.195917 -6.935611,1.195917"
         style="fill:#231f20;fill-opacity:1;fill-rule:nonzero;stroke:none;stroke-width:0.0352778"
         id="path98" />
      <path
         d="m 96.164202,122.42291 c -0.500945,0 -0.994833,-0.21519 -1.337028,-0.635 L 79.693006,103.33763 c -0.606777,-0.7373 -0.497416,-1.83091 0.239889,-2.43416 0.740834,-0.60678 1.830917,-0.50095 2.437695,0.23988 l 15.134168,18.45028 c 0.60325,0.73731 0.497416,1.83092 -0.243417,2.43417 -0.321028,0.26458 -0.709083,0.39511 -1.097139,0.39511"
         style="fill:#231f20;fill-opacity:1;fill-rule:nonzero;stroke:none;stroke-width:0.0352778"
         id="path100" />
      <path
         d="m 104.99423,115.18391 c -0.50094,0 -0.99836,-0.21872 -1.34056,-0.635 L 88.519507,96.098632 c -0.606778,-0.740833 -0.497417,-1.830916 0.239889,-2.437694 0.740833,-0.606778 1.830917,-0.497417 2.437695,0.239889 l 15.134169,18.453803 c 0.60678,0.73731 0.49741,1.82739 -0.24342,2.43417 -0.32103,0.26458 -0.70908,0.39511 -1.09361,0.39511"
         style="fill:#231f20;fill-opacity:1;fill-rule:nonzero;stroke:none;stroke-width:0.0352778"
         id="path102" />
      <path
         d="m 79.583645,87.268604 c -2.141361,0 -4.307417,-1.241778 -5.732639,-3.439584 -1.36525,-2.102555 -6.529917,-1.358194 -10.876139,-0.472722 -4.437945,0.903111 -9.186334,-0.821972 -11.038418,-4.007556 -1.439333,-2.4765 -0.956028,-5.393972 1.322917,-8.004528 0.631472,-0.719667 1.725083,-0.79375 2.44475,-0.165805 0.719667,0.627944 0.79375,1.721555 0.165806,2.44475 -1.298223,1.485194 -1.615723,2.82575 -0.938389,3.986389 1.100666,1.897944 4.402667,2.95275 7.351889,2.353028 5.637389,-1.146528 11.867445,-2.032 14.470945,1.982611 0.956028,1.474611 2.469445,2.19075 3.598334,1.703917 1.164167,-0.500945 2.166056,-2.561167 1.160639,-6.720417 -0.225778,-0.931334 0.345722,-1.866195 1.273528,-2.091973 0.931333,-0.22225 1.866194,0.34925 2.091972,1.277056 1.509889,6.247695 -0.638528,9.634362 -3.157361,10.71739 -0.687917,0.296333 -1.411111,0.437444 -2.137834,0.437444"
         style="fill:#231f20;fill-opacity:1;fill-rule:nonzero;stroke:none;stroke-width:0.0352778"
         id="path104" />
    </g>
  </g>
</svg>
