<svg xmlns="http://www.w3.org/2000/svg" xmlns:svg="http://www.w3.org/2000/svg" id="svg2674" width="497.866" height="308.747" version="1.1" viewBox="0 0 131.727 81.689"><g id="layer1" transform="translate(-39.136482,-107.65539)"><g id="g835" transform="translate(-69.256099,37.829267)"><path d="m 125.81608,134.2504 c -0.95602,0 -1.73213,-0.77611 -1.73213,-1.73214 v -29.26644 c 0,-2.47298 -2.01084,-4.487338 -4.48734,-4.487338 -2.4765,0 -4.49086,2.014358 -4.49086,4.487338 v 29.26644 c 0,0.95603 -0.77258,1.73214 -1.72861,1.73214 -0.95956,0 -1.73214,-0.77611 -1.73214,-1.73214 v -29.26644 c 0,-4.381505 3.56658,-7.951616 7.95161,-7.951616 4.38503,0 7.95161,3.570111 7.95161,7.951616 v 29.26644 c 0,0.95603 -0.77611,1.73214 -1.73214,1.73214" style="fill:#231f20;fill-opacity:1;fill-rule:nonzero;stroke:none;stroke-width:.0352778" id="path434"/><path d="m 138.25856,134.2504 c -0.95603,0 -1.73214,-0.77611 -1.73214,-1.73214 v -29.26644 c 0,-2.47298 -2.01436,-4.487338 -4.48733,-4.487338 -2.47651,0 -4.49087,2.014358 -4.49087,4.487338 0,0.95602 -0.77611,1.73213 -1.73214,1.73213 -0.95602,0 -1.73213,-0.77611 -1.73213,-1.73213 0,-4.381505 3.57011,-7.951616 7.95514,-7.951616 4.3815,0 7.95161,3.570111 7.95161,7.951616 v 29.26644 c 0,0.95603 -0.77611,1.73214 -1.73214,1.73214" style="fill:#231f20;fill-opacity:1;fill-rule:nonzero;stroke:none;stroke-width:.0352778" id="path436"/><path d="m 150.70103,134.2504 c -0.95603,0 -1.73214,-0.77611 -1.73214,-1.73214 v -29.26644 c 0,-2.47298 -2.01436,-4.487338 -4.49086,-4.487338 -2.47297,0 -4.48733,2.014358 -4.48733,4.487338 0,0.95602 -0.77611,1.73213 -1.73214,1.73213 -0.95603,0 -1.73214,-0.77611 -1.73214,-1.73213 0,-4.381505 3.56658,-7.951616 7.95161,-7.951616 4.38503,0 7.95161,3.570111 7.95161,7.951616 v 29.26644 c 0,0.95603 -0.77258,1.73214 -1.72861,1.73214" style="fill:#231f20;fill-opacity:1;fill-rule:nonzero;stroke:none;stroke-width:.0352778" id="path438"/><path d="m 163.13998,134.2504 c -0.95603,0 -1.72862,-0.77611 -1.72862,-1.73214 v -29.26644 c 0,-2.47298 -2.01436,-4.487338 -4.49086,-4.487338 -2.4765,0 -4.49086,2.014358 -4.49086,4.487338 0,0.95602 -0.77258,1.73213 -1.72861,1.73213 -0.95603,0 -1.73214,-0.77611 -1.73214,-1.73213 0,-4.381505 3.56659,-7.951616 7.95161,-7.951616 4.38503,0 7.95161,3.570111 7.95161,7.951616 v 29.26644 c 0,0.95603 -0.77611,1.73214 -1.73213,1.73214" style="fill:#231f20;fill-opacity:1;fill-rule:nonzero;stroke:none;stroke-width:.0352778" id="path440"/><path d="m 175.58245,134.2504 c -0.95603,0 -1.73214,-0.77611 -1.73214,-1.73214 v -29.26644 c 0,-2.47298 -2.01083,-4.487338 -4.48733,-4.487338 -2.4765,0 -4.49087,2.014358 -4.49087,4.487338 0,0.95602 -0.77611,1.73213 -1.73213,1.73213 -0.95603,0 -1.72862,-0.77611 -1.72862,-1.73213 0,-4.381505 3.56659,-7.951616 7.95162,-7.951616 4.38502,0 7.95161,3.570111 7.95161,7.951616 v 29.26644 c 0,0.95603 -0.77611,1.73214 -1.73214,1.73214" style="fill:#231f20;fill-opacity:1;fill-rule:nonzero;stroke:none;stroke-width:.0352778" id="path442"/><path d="m 172.38628,99.551176 c -0.762,0 -1.45697,-0.508 -1.66864,-1.277055 -0.25047,-0.924278 0.29634,-1.87325 1.21709,-2.123723 3.92289,-1.068916 10.07886,-8.371417 10.73855,-16.379473 -5.41161,3.591278 -12.1673,4.826 -20.64808,3.771195 -7.23547,-0.896056 -14.51681,-3.294945 -20.93736,-5.411612 -5.73264,-1.890889 -10.68212,-3.520722 -13.89945,-3.520722 -2.48708,0 -4.82247,0.359833 -6.93914,1.068917 -3.84175,1.284111 -6.44878,4.434417 -6.98147,8.420806 -0.5327,4.014611 1.17828,7.757584 4.572,10.018889 1.05128,0.694972 1.96144,1.107723 2.79047,1.252361 0.94192,0.165806 1.56986,1.061862 1.40406,2.003778 -0.16228,0.941917 -1.05834,1.573389 -2.00378,1.407584 -1.30881,-0.232834 -2.65289,-0.814917 -4.10633,-1.781528 -4.45559,-2.963334 -6.78745,-8.08214 -6.08542,-13.356168 0.69497,-5.249333 4.26508,-9.560278 9.3098,-11.250084 2.47298,-0.8255 5.17878,-1.245305 8.03981,-1.245305 3.77472,0 8.96761,1.710972 14.98247,3.690055 12.50245,4.120445 28.05995,9.249834 38.81262,1.894417 1.0548,-0.719666 2.39889,-0.776111 3.51014,-0.148166 1.10066,0.627944 1.73919,1.806222 1.65805,3.076222 -0.58561,9.288639 -7.63411,18.288001 -13.3103,19.82964 -0.1517,0.03881 -0.30339,0.05997 -0.45509,0.05997" style="fill:#231f20;fill-opacity:1;fill-rule:nonzero;stroke:none;stroke-width:.0352778" id="path444"/><path d="M 237.06809,150.19243 H 113.37714 c -0.95956,0 -1.73214,-0.77611 -1.73214,-1.73214 v -15.94203 c 0,-0.95603 0.77258,-1.72861 1.73214,-1.72861 h 123.69095 c 0.95603,0 1.72861,0.77258 1.72861,1.72861 0,0.95603 -0.77258,1.73214 -1.72861,1.73214 H 115.10575 v 12.48128 h 121.96234 c 0.95603,0 1.72861,0.77258 1.72861,1.72861 0,0.95603 -0.77258,1.73214 -1.72861,1.73214" style="fill:#231f20;fill-opacity:1;fill-rule:nonzero;stroke:none;stroke-width:.0352778" id="path446"/></g></g></svg>