<svg xmlns="http://www.w3.org/2000/svg" xmlns:svg="http://www.w3.org/2000/svg" id="svg1469" width="473.773" height="498.013" version="1.1" viewBox="0 0 125.353 131.766"><g id="layer1" transform="translate(-42.323733,-82.61698)"><g id="g833" transform="translate(-17.74388,0.8048735)"><path d="M 182.36509,212.25523 H 63.119141 c -0.956028,0 -1.728611,-0.77612 -1.728611,-1.73214 V 91.277134 c 0,-0.956028 0.772583,-1.728611 1.728611,-1.728611 h 36.618336 c 0.956023,0 1.732143,0.772583 1.732143,1.728611 0,0.956028 -0.77612,1.732139 -1.732143,1.732139 H 64.85128 V 208.79095 h 115.7852 V 93.009273 H 144.5967 c -0.95603,0 -1.72861,-0.776111 -1.72861,-1.732139 0,-0.956028 0.77258,-1.728611 1.72861,-1.728611 h 37.76839 c 0.95603,0 1.73214,0.772583 1.73214,1.728611 V 210.52309 c 0,0.95602 -0.77611,1.73214 -1.73214,1.73214" style="fill:#231f20;fill-opacity:1;fill-rule:nonzero;stroke:none;stroke-width:.0352778" id="path232"/><path d="m 170.24365,190.64406 h -13.57136 c -0.95603,0 -1.73214,-0.77259 -1.73214,-1.72861 0,-0.95603 0.77611,-1.73214 1.73214,-1.73214 h 13.57136 c 0.95603,0 1.73214,0.77611 1.73214,1.73214 0,0.95602 -0.77611,1.72861 -1.73214,1.72861" style="fill:#231f20;fill-opacity:1;fill-rule:nonzero;stroke:none;stroke-width:.0352778" id="path234"/><path d="m 170.24365,199.49878 h -13.57136 c -0.95603,0 -1.73214,-0.77611 -1.73214,-1.73214 0,-0.95603 0.77611,-1.73214 1.73214,-1.73214 h 13.57136 c 0.95603,0 1.73214,0.77611 1.73214,1.73214 0,0.95603 -0.77611,1.73214 -1.73214,1.73214" style="fill:#231f20;fill-opacity:1;fill-rule:nonzero;stroke:none;stroke-width:.0352778" id="path236"/><path d="m 122.74212,152.43469 c 3.83469,0 6.88975,1.31939 9.07697,3.91937 4.60375,5.47511 4.06047,15.31408 2.79753,22.60247 -1.48167,8.52664 0.13405,12.45658 2.14489,13.29619 1.35114,0.56092 3.14677,-0.18344 4.27566,-1.77094 2.94923,-4.1522 6.16656,-14.40392 6.70278,-27.94 0.24695,-6.23359 1.30528,-10.11061 2.32481,-13.85711 1.17828,-4.32859 2.29305,-8.41728 2.29305,-16.16781 0,-8.86883 -7.10141,-16.08314 -15.83266,-16.08314 -1.81328,0 -3.59481,0.30339 -5.28814,0.90664 -2.76225,0.97719 -5.61623,1.48519 -8.48078,1.50636 -0.007,0 -0.0176,0 -0.0282,0 -2.86103,-0.0212 -5.715,-0.52917 -8.47725,-1.50636 -1.69334,-0.60325 -3.47487,-0.90664 -5.29167,-0.90664 -8.72772,0 -15.829142,7.21431 -15.829142,16.08314 0,7.75053 1.111251,11.83922 2.289528,16.16781 1.023056,3.7465 2.077862,7.62352 2.324806,13.85711 0.536222,13.53608 3.753558,23.7878 6.706308,27.94 1.12536,1.5875 2.92805,2.33186 4.27567,1.77094 2.0073,-0.83961 3.62655,-4.76955 2.14488,-13.29619 -1.94733,-11.21834 -1.21002,-18.39736 2.32834,-22.60247 2.18722,-2.59998 5.3975,-3.91937 9.54264,-3.91937 z m 14.98953,43.46928 c -0.78317,0 -1.56281,-0.14816 -2.30364,-0.45508 -2.50473,-1.04422 -6.38528,-4.65314 -4.22275,-17.08856 1.61219,-9.27452 0.889,-16.29833 -2.03553,-19.77672 -1.52047,-1.80622 -3.62303,-2.68464 -6.42761,-2.68464 -3.11856,0 -5.37281,0.87842 -6.89328,2.68464 -2.79047,3.31611 -3.302,9.78606 -1.56633,19.77672 2.159,12.43542 -1.71803,16.04434 -4.22275,17.08856 -2.87867,1.19592 -6.34295,-0.0212 -8.43492,-2.9598 -3.961697,-5.58095 -6.843891,-17.27906 -7.33778,-29.80973 -0.232834,-5.842 -1.192389,-9.35919 -2.204862,-13.08453 -1.188861,-4.36033 -2.416528,-8.8653 -2.416528,-17.07797 0,-5.21758 1.993195,-10.11767 5.609167,-13.80067 3.63714,-3.70417 8.494893,-5.74322 13.684253,-5.74322 2.21192,0 4.3815,0.37042 6.44878,1.10067 2.39183,0.85019 4.86127,1.29116 7.33425,1.31233 2.4765,-0.0212 4.94241,-0.46214 7.33778,-1.31233 2.06727,-0.73025 4.23686,-1.10067 6.44525,-1.10067 5.18936,0 10.05064,2.03905 13.68777,5.74322 3.61598,3.683 5.60917,8.58309 5.60917,13.80067 0,8.21267 -1.22767,12.71764 -2.41653,17.07797 -1.016,3.72534 -1.97202,7.24253 -2.20486,13.08453 -0.49741,12.53067 -3.37608,24.22878 -7.3413,29.80973 -1.55223,2.18016 -3.86292,3.41488 -6.12775,3.41488" style="fill:#231f20;fill-opacity:1;fill-rule:nonzero;stroke:none;stroke-width:.0352778" id="path238"/><path d="m 140.07762,149.53839 c -0.067,0 -0.13053,-0.004 -0.19756,-0.0106 -0.94897,-0.10936 -1.63336,-0.96308 -1.52753,-1.91558 0.43039,-3.82411 -0.0494,-6.46994 -1.43227,-7.86694 -2.02142,-2.04964 -6.23359,-1.62631 -9.95539,-1.25236 -1.49578,0.14816 -2.91395,0.28927 -4.22275,0.28927 -1.30881,0 -2.72345,-0.14111 -4.22275,-0.28927 -3.71828,-0.37395 -7.93398,-0.79728 -9.95539,1.25236 -1.37936,1.397 -1.86267,4.04283 -1.43228,7.86694 0.10583,0.9525 -0.57503,1.80622 -1.52753,1.91558 -0.94897,0.10937 -1.80622,-0.57855 -1.91205,-1.52752 -0.56092,-4.98475 0.2293,-8.48078 2.40947,-10.68917 3.18558,-3.22439 8.27264,-2.71286 12.7635,-2.26483 1.41111,0.14111 2.74108,0.27516 3.87703,0.27516 1.13594,0 2.46944,-0.13405 3.88055,-0.27516 4.49086,-0.44803 9.57792,-0.95956 12.7635,2.26483 2.18017,2.20839 2.97039,5.70442 2.40948,10.68917 -0.0988,0.88547 -0.8502,1.53811 -1.71803,1.53811" style="fill:#231f20;fill-opacity:1;fill-rule:nonzero;stroke:none;stroke-width:.0352778" id="path240"/><path d="m 101.46962,95.958496 h 41.39847 v -9.362723 h -41.39847 z m 43.12708,3.464278 H 99.737477 c -0.956028,0 -1.732139,-0.776111 -1.732139,-1.732139 V 84.867162 c 0,-0.959556 0.776111,-1.732139 1.732139,-1.732139 H 144.5967 c 0.95603,0 1.73214,0.772583 1.73214,1.732139 v 12.823473 c 0,0.956028 -0.77611,1.732139 -1.73214,1.732139" style="fill:#231f20;fill-opacity:1;fill-rule:nonzero;stroke:none;stroke-width:.0352778" id="path242"/></g></g></svg>