<svg width="26" height="27" viewBox="0 0 26 27" fill="none" xmlns="http://www.w3.org/2000/svg">
<path d="M6.33333 20.0684V10.7195M25 8.04836V18.7328C25 20.5039 24.2976 22.2024 23.0474 23.4547C21.7971 24.707 20.1014 25.4106 18.3333 25.4106H7.66667C5.89856 25.4106 4.20286 24.707 2.95262 23.4547C1.70238 22.2024 1 20.5039 1 18.7328V8.04836C1 6.2773 1.70238 4.57878 2.95262 3.32645C4.20286 2.07412 5.89856 1.37057 7.66667 1.37057H18.3333C20.1014 1.37057 21.7971 2.07412 23.0474 3.32645C24.2976 4.57878 25 6.2773 25 8.04836Z" stroke="#323232" stroke-width="1.3" stroke-linecap="round" stroke-linejoin="round"/>
<path d="M11.6666 20.0684V15.7278M11.6666 10.7195V15.7278M11.6666 15.7278C11.6666 10.7195 19.6666 10.7195 19.6666 15.7278V20.0684M6.33331 6.72618L6.34665 6.71149" stroke="#323232" stroke-width="1.3" stroke-linecap="round" stroke-linejoin="round"/>
</svg>
